<?xml version="1.0" encoding="UTF-8"?>
<svg version="1.1" xmlns="http://www.w3.org/2000/svg" width="460" height="460">
<path d="M0 0 C1.43049683 -0.00713013 1.43049683 -0.00713013 2.88989258 -0.0144043 C21.38792617 0.02858106 21.38792617 0.02858106 27.375 4.125 C29.46915448 4.90919402 31.59057408 5.56815154 33.72265625 6.2421875 C36.79785308 7.26574344 39.79652579 8.43850367 42.8125 9.625 C47.6397345 11.50603504 52.46329138 13.14330788 57.44921875 14.546875 C59.375 15.125 59.375 15.125 61.375 16.125 C62.85752163 16.38774126 64.34741304 16.60971207 65.83984375 16.80859375 C66.72220703 16.93169922 67.60457031 17.05480469 68.51367188 17.18164062 C70.37520312 17.43495437 72.23718613 17.68497069 74.09960938 17.93164062 C74.98326172 18.05603516 75.86691406 18.18042969 76.77734375 18.30859375 C77.99151978 18.47186157 77.99151978 18.47186157 79.23022461 18.63842773 C81.375 19.125 81.375 19.125 84.375 21.125 C84.63160094 24.20421132 84.76931504 26.33636993 83.375 29.125 C85.355 29.125 87.335 29.125 89.375 29.125 C89.478125 30.23875 89.58125 31.3525 89.6875 32.5 C89.914375 33.69625 90.14125 34.8925 90.375 36.125 C91.365 36.785 92.355 37.445 93.375 38.125 C93.375 38.785 93.375 39.445 93.375 40.125 C94.365 40.125 95.355 40.125 96.375 40.125 C96.94010589 58.54326605 96.94010589 58.54326605 93.375 65.125 C92.715 65.455 92.055 65.785 91.375 66.125 C91.84118678 69.03866738 92.62603149 70.47801304 94.375 72.9375 C98.77883444 80.33594187 98.23496518 91.9101538 96.375 100.125 C95.0625 102.625 95.0625 102.625 93.375 104.125 C92.055 104.125 90.735 104.125 89.375 104.125 C89.65465747 108.14676219 89.95087292 112.16714275 90.25 116.1875 C90.32863281 117.32123047 90.40726562 118.45496094 90.48828125 119.62304688 C90.92580753 125.39502812 91.48948982 130.64523605 93.375 136.125 C93.74625 137.259375 94.1175 138.39375 94.5 139.5625 C94.78875 140.408125 95.0775 141.25375 95.375 142.125 C98.345 142.125 101.315 142.125 104.375 142.125 C104.705 143.775 105.035 145.425 105.375 147.125 C99.75 148.25 99.75 148.25 96.375 147.125 C96.53613281 147.83140625 96.69726562 148.5378125 96.86328125 149.265625 C98.30846211 157.34098677 97.56267571 165.2751048 95.375 173.125 C95.045 173.455 94.715 173.785 94.375 174.125 C94.27621956 176.7972405 94.23784407 179.44825692 94.234375 182.12109375 C94.21599747 183.81316397 94.19642287 185.50522151 94.17578125 187.19726562 C94.14721737 189.85152793 94.12501081 192.50499958 94.12451172 195.15942383 C94.10336899 211.05120138 91.86042892 226.00442792 84.25 240.1875 C83.91613281 240.86103516 83.58226562 241.53457031 83.23828125 242.22851562 C80.7835203 246.98882657 80.7835203 246.98882657 77.375 248.125 C77.375 249.445 77.375 250.765 77.375 252.125 C76.715 252.125 76.055 252.125 75.375 252.125 C75.375 252.785 75.375 253.445 75.375 254.125 C74.715 254.125 74.055 254.125 73.375 254.125 C73.045 255.115 72.715 256.105 72.375 257.125 C70.39543058 258.81588222 68.39554804 260.48330472 66.375 262.125 C66.045 262.785 65.715 263.445 65.375 264.125 C64.385 264.455 63.395 264.785 62.375 265.125 C61.7253125 265.79208984 61.7253125 265.79208984 61.0625 266.47265625 C53.40159699 273.97395711 39.85331443 279.33413481 29.1875 279.375 C27.599375 279.2925 26.01125 279.21 24.375 279.125 C25.035 284.075 25.695 289.025 26.375 294.125 C28.293125 293.939375 30.21125 293.75375 32.1875 293.5625 C45.35280144 292.60787316 57.14265516 294.47804735 67.94921875 302.6796875 C69.58683298 304.3397348 70.52182209 306.01207039 71.625 308.0625 C74.28808316 312.80082857 78.09286518 314.3963893 82.83984375 316.75390625 C86.72829926 318.85690761 88.77164415 321.26465278 90.125 325.4375 C90.2075 325.994375 90.29 326.55125 90.375 327.125 C91.035 327.125 91.695 327.125 92.375 327.125 C93.54926264 329.47352528 93.49008173 330.86274065 93.47265625 333.4765625 C93.46943359 334.32734375 93.46621094 335.178125 93.46289062 336.0546875 C93.45451172 336.94414062 93.44613281 337.83359375 93.4375 338.75 C93.43298828 339.6471875 93.42847656 340.544375 93.42382812 341.46875 C93.41202591 343.68756648 93.39556155 345.90625018 93.375 348.125 C94.365 348.125 95.355 348.125 96.375 348.125 C96.375 348.785 96.375 349.445 96.375 350.125 C97.179375 350.393125 97.98375 350.66125 98.8125 350.9375 C99.658125 351.329375 100.50375 351.72125 101.375 352.125 C101.705 353.115 102.035 354.105 102.375 355.125 C103.68903276 355.82894612 105.0270257 356.48845658 106.375 357.125 C110.66102908 360.17033645 114.3108678 363.84995645 117.375 368.125 C117.375 368.785 117.375 369.445 117.375 370.125 C117.973125 370.393125 118.57125 370.66125 119.1875 370.9375 C123.29374762 373.16660585 125.07086603 376.13707582 127.375 380.125 C127.74625 380.65609375 128.1175 381.1871875 128.5 381.734375 C132.19394679 387.13677218 134.21550452 392.88547778 136.26171875 399.05078125 C137.2773388 402.23660707 137.2773388 402.23660707 139.375 405.125 C140.695 410.405 142.015 415.685 143.375 421.125 C14.015 421.125 -115.345 421.125 -248.625 421.125 C-248.625 408.125 -248.625 408.125 -246.625 403.125 C-245.965 403.125 -245.305 403.125 -244.625 403.125 C-244.5425 402.444375 -244.46 401.76375 -244.375 401.0625 C-242.80880451 394.92823433 -238.76687036 389.76002292 -235.25390625 384.57421875 C-233.52778948 381.97883454 -231.89083435 379.33750353 -230.25 376.6875 C-226.11823368 370.15930922 -221.47756345 363.25421291 -215.625 358.125 C-214.965 358.125 -214.305 358.125 -213.625 358.125 C-213.25375 357.25101562 -213.25375 357.25101562 -212.875 356.359375 C-211.43974554 353.79385764 -209.84836987 352.28775202 -207.625 350.375 C-206.92375 349.76140625 -206.2225 349.1478125 -205.5 348.515625 C-203.625 347.125 -203.625 347.125 -201.625 347.125 C-201.625 346.465 -201.625 345.805 -201.625 345.125 C-199.875 343.8359375 -199.875 343.8359375 -197.625 342.5 C-196.8825 342.05398438 -196.14 341.60796875 -195.375 341.1484375 C-194.7975 340.81070312 -194.22 340.47296875 -193.625 340.125 C-194.285 339.465 -194.945 338.805 -195.625 338.125 C-195.87966505 335.20523562 -195.9953262 332.42112689 -196 329.5 C-196.02449219 328.71753906 -196.04898438 327.93507813 -196.07421875 327.12890625 C-196.10416364 321.1099843 -194.6365458 317.32676093 -191.625 312.125 C-190.965 312.125 -190.305 312.125 -189.625 312.125 C-189.625 311.135 -189.625 310.145 -189.625 309.125 C-188.635 309.125 -187.645 309.125 -186.625 309.125 C-186.295 308.135 -185.965 307.145 -185.625 306.125 C-183.33203125 304.58984375 -183.33203125 304.58984375 -180.4375 303.0625 C-179.49519531 302.55589844 -178.55289063 302.04929687 -177.58203125 301.52734375 C-169.78425824 297.82932458 -162.35919757 297.48494611 -153.859375 296.9140625 C-152.36277344 296.80191406 -152.36277344 296.80191406 -150.8359375 296.6875 C-149.93149902 296.62691406 -149.02706055 296.56632812 -148.09521484 296.50390625 C-145.56907099 296.11642105 -143.82689965 295.39386956 -141.625 294.125 C-141.625 292.805 -141.625 291.485 -141.625 290.125 C-140.965 290.125 -140.305 290.125 -139.625 290.125 C-139.625 289.465 -139.625 288.805 -139.625 288.125 C-138.965 288.125 -138.305 288.125 -137.625 288.125 C-137.625 287.135 -137.625 286.145 -137.625 285.125 C-134.81379344 281.32160289 -130.08575246 278.54584193 -125.44799805 277.75268555 C-123.11962495 277.6256287 -120.83083663 277.62758629 -118.5 277.6875 C-117.71496094 277.68041016 -116.92992187 277.67332031 -116.12109375 277.66601562 C-111.37646652 277.7180225 -108.58615507 278.32203733 -104.625 281.125 C-102.97295544 281.82711894 -101.30576231 282.49471413 -99.625 283.125 C-96.07318284 284.51391955 -92.72287915 285.85322196 -89.625 288.125 C-89.625 288.785 -89.625 289.445 -89.625 290.125 C-87.645 290.455 -85.665 290.785 -83.625 291.125 C-83.50125 290.196875 -83.3775 289.26875 -83.25 288.3125 C-82.625 285.125 -82.625 285.125 -80.625 282.125 C-80.05876091 279.99148449 -80.05876091 279.99148449 -79.6875 277.625 C-78.96533693 273.8070526 -78.18542942 270.02205594 -77.25 266.25 C-77.03601563 265.36570312 -76.82203125 264.48140625 -76.6015625 263.5703125 C-75.45230041 260.69256024 -73.92687995 259.16164275 -71.625 257.125 C-72.099375 256.3825 -72.57375 255.64 -73.0625 254.875 C-74.625 252.125 -74.625 252.125 -75.0625 249.9375 C-75.4736428 247.90504532 -75.4736428 247.90504532 -77.6875 246.875 C-78.6465625 246.50375 -78.6465625 246.50375 -79.625 246.125 C-79.625 245.465 -79.625 244.805 -79.625 244.125 C-80.945 243.465 -82.265 242.805 -83.625 242.125 C-83.625 241.465 -83.625 240.805 -83.625 240.125 C-84.945 239.465 -86.265 238.805 -87.625 238.125 C-87.625 237.465 -87.625 236.805 -87.625 236.125 C-88.2025 235.8775 -88.78 235.63 -89.375 235.375 C-92.01204101 233.90997722 -93.69858864 232.44997923 -95.625 230.125 C-96.375 227.375 -96.375 227.375 -96.625 225.125 C-97.285 225.125 -97.945 225.125 -98.625 225.125 C-98.625 224.135 -98.625 223.145 -98.625 222.125 C-99.615 222.785 -100.605 223.445 -101.625 224.125 C-105.65002135 223.77499814 -108.90729089 222.61208364 -112.625 221.125 C-114.6174325 220.74906934 -116.6168674 220.40520455 -118.625 220.125 C-119.91071429 211.55357143 -119.91071429 211.55357143 -118.625 208.125 C-117.965 208.125 -117.305 208.125 -116.625 208.125 C-116.625 207.465 -116.625 206.805 -116.625 206.125 C-117.718125 206.00125 -118.81125 205.8775 -119.9375 205.75 C-123.625 205.125 -123.625 205.125 -126.625 203.125 C-126.625 202.465 -126.625 201.805 -126.625 201.125 C-127.2025 200.91875 -127.78 200.7125 -128.375 200.5 C-132.39686006 198.04219663 -134.24789216 194.63343138 -135.375 190.125 C-136.41168981 179.01760917 -136.95472702 167.11823815 -131.625 157.125 C-130.91741674 153.8883037 -130.91741674 153.8883037 -130.625 151.125 C-133.14863988 151.75033375 -133.14863988 151.75033375 -135.625 153.125 C-136.51886164 155.67275306 -136.51886164 155.67275306 -136.625 158.125 C-138.275 158.125 -139.925 158.125 -141.625 158.125 C-141.97207158 152.83215835 -141.97207158 152.83215835 -141.625 150.125 C-139.8125 148.125 -139.8125 148.125 -137.625 147.125 C-136.635 147.125 -135.645 147.125 -134.625 147.125 C-135.08519531 146.42246094 -135.54539062 145.71992188 -136.01953125 144.99609375 C-140.80759409 136.43349962 -140.9031222 126.32381709 -140.9375 116.75 C-140.94559692 115.35986694 -140.94559692 115.35986694 -140.95385742 113.94165039 C-140.89576475 108.32383651 -140.13158641 103.52995202 -138.625 98.125 C-138.45910681 96.712538 -138.32505064 95.29518902 -138.25 93.875 C-136.95332011 81.39711324 -130.53416131 68.48874196 -123.625 58.125 C-125.11 57.135 -125.11 57.135 -126.625 56.125 C-126.8125 52.5 -126.8125 52.5 -126.625 49.125 C-125.99722656 48.898125 -125.36945313 48.67125 -124.72265625 48.4375 C-121.91502969 46.68077277 -121.79614458 45.29951238 -121.0625 42.125 C-119.94187715 37.33625144 -119.94187715 37.33625144 -116.625 35.125 C-114.02254502 34.98278935 -111.53382316 34.93697068 -108.9375 35 C-108.23560547 35.00902344 -107.53371094 35.01804688 -106.81054688 35.02734375 C-105.08188475 35.05086296 -103.35339855 35.08673287 -101.625 35.125 C-101.625 34.465 -101.625 33.805 -101.625 33.125 C-98.78371915 30.59941702 -96.00190821 28.8134541 -92.625 27.125 C-92.295 26.465 -91.965 25.805 -91.625 25.125 C-89.97061387 24.42841637 -88.30245682 23.76403117 -86.625 23.125 C-85.635 22.465 -84.645 21.805 -83.625 21.125 C-82.305 21.125 -80.985 21.125 -79.625 21.125 C-79.625 20.465 -79.625 19.805 -79.625 19.125 C-77.83374151 18.37402565 -76.04196564 17.62428538 -74.25 16.875 C-73.25226563 16.45734375 -72.25453125 16.0396875 -71.2265625 15.609375 C-70.03804687 15.11953125 -68.84953125 14.6296875 -67.625 14.125 C-66.49602295 13.65139038 -66.49602295 13.65139038 -65.34423828 13.16821289 C-59.40485226 10.72138192 -53.43876011 8.77288365 -47.25 7.0625 C-45.87038086 6.67735229 -45.87038086 6.67735229 -44.46289062 6.28442383 C-42.65484298 5.78217065 -40.8459543 5.28293267 -39.03613281 4.78710938 C-37.03929189 4.23876667 -35.04643085 3.67595407 -33.0546875 3.109375 C-22.13632383 0.13958008 -11.24585301 0.04593821 0 0 Z " fill="#FDFDFD" transform="translate(248.625,38.875)"/>
<path d="M0 0 C1.43049683 -0.00713013 1.43049683 -0.00713013 2.88989258 -0.0144043 C21.38792617 0.02858106 21.38792617 0.02858106 27.375 4.125 C29.46915448 4.90919402 31.59057408 5.56815154 33.72265625 6.2421875 C36.79785308 7.26574344 39.79652579 8.43850367 42.8125 9.625 C47.6397345 11.50603504 52.46329138 13.14330788 57.44921875 14.546875 C59.375 15.125 59.375 15.125 61.375 16.125 C62.85752163 16.38774126 64.34741304 16.60971207 65.83984375 16.80859375 C66.72220703 16.93169922 67.60457031 17.05480469 68.51367188 17.18164062 C70.37520312 17.43495437 72.23718613 17.68497069 74.09960938 17.93164062 C74.98326172 18.05603516 75.86691406 18.18042969 76.77734375 18.30859375 C77.99151978 18.47186157 77.99151978 18.47186157 79.23022461 18.63842773 C81.375 19.125 81.375 19.125 84.375 21.125 C84.63160094 24.20421132 84.76931504 26.33636993 83.375 29.125 C85.355 29.125 87.335 29.125 89.375 29.125 C89.478125 30.23875 89.58125 31.3525 89.6875 32.5 C89.914375 33.69625 90.14125 34.8925 90.375 36.125 C91.365 36.785 92.355 37.445 93.375 38.125 C93.375 38.785 93.375 39.445 93.375 40.125 C94.365 40.125 95.355 40.125 96.375 40.125 C96.94010589 58.54326605 96.94010589 58.54326605 93.375 65.125 C92.715 65.455 92.055 65.785 91.375 66.125 C91.84118678 69.03866738 92.62603149 70.47801304 94.375 72.9375 C98.77883444 80.33594187 98.23496518 91.9101538 96.375 100.125 C95.0625 102.625 95.0625 102.625 93.375 104.125 C92.055 104.125 90.735 104.125 89.375 104.125 C89.65465747 108.14676219 89.95087292 112.16714275 90.25 116.1875 C90.32863281 117.32123047 90.40726562 118.45496094 90.48828125 119.62304688 C90.92580753 125.39502812 91.48948982 130.64523605 93.375 136.125 C93.74625 137.259375 94.1175 138.39375 94.5 139.5625 C94.78875 140.408125 95.0775 141.25375 95.375 142.125 C98.345 142.125 101.315 142.125 104.375 142.125 C104.705 143.775 105.035 145.425 105.375 147.125 C99.75 148.25 99.75 148.25 96.375 147.125 C96.53613281 147.83140625 96.69726562 148.5378125 96.86328125 149.265625 C98.30846211 157.34098677 97.56267571 165.2751048 95.375 173.125 C95.045 173.455 94.715 173.785 94.375 174.125 C94.27621956 176.7972405 94.23784407 179.44825692 94.234375 182.12109375 C94.21599747 183.81316397 94.19642287 185.50522151 94.17578125 187.19726562 C94.14721737 189.85152793 94.12501081 192.50499958 94.12451172 195.15942383 C94.10336899 211.05120138 91.86042892 226.00442792 84.25 240.1875 C83.91613281 240.86103516 83.58226562 241.53457031 83.23828125 242.22851562 C80.7835203 246.98882657 80.7835203 246.98882657 77.375 248.125 C77.375 249.445 77.375 250.765 77.375 252.125 C76.715 252.125 76.055 252.125 75.375 252.125 C75.375 252.785 75.375 253.445 75.375 254.125 C74.715 254.125 74.055 254.125 73.375 254.125 C73.045 255.115 72.715 256.105 72.375 257.125 C70.39543058 258.81588222 68.39554804 260.48330472 66.375 262.125 C66.045 262.785 65.715 263.445 65.375 264.125 C64.385 264.455 63.395 264.785 62.375 265.125 C61.7253125 265.79208984 61.7253125 265.79208984 61.0625 266.47265625 C53.40159699 273.97395711 39.85331443 279.33413481 29.1875 279.375 C27.599375 279.2925 26.01125 279.21 24.375 279.125 C25.035 284.075 25.695 289.025 26.375 294.125 C28.293125 293.939375 30.21125 293.75375 32.1875 293.5625 C45.35280144 292.60787316 57.14265516 294.47804735 67.94921875 302.6796875 C69.58683298 304.3397348 70.52182209 306.01207039 71.625 308.0625 C74.28808316 312.80082857 78.09286518 314.3963893 82.83984375 316.75390625 C86.72829926 318.85690761 88.77164415 321.26465278 90.125 325.4375 C90.2075 325.994375 90.29 326.55125 90.375 327.125 C91.035 327.125 91.695 327.125 92.375 327.125 C93.54926264 329.47352528 93.49008173 330.86274065 93.47265625 333.4765625 C93.46943359 334.32734375 93.46621094 335.178125 93.46289062 336.0546875 C93.45451172 336.94414062 93.44613281 337.83359375 93.4375 338.75 C93.43298828 339.6471875 93.42847656 340.544375 93.42382812 341.46875 C93.41202591 343.68756648 93.39556155 345.90625018 93.375 348.125 C94.365 348.125 95.355 348.125 96.375 348.125 C96.375 348.785 96.375 349.445 96.375 350.125 C97.179375 350.393125 97.98375 350.66125 98.8125 350.9375 C99.658125 351.329375 100.50375 351.72125 101.375 352.125 C101.705 353.115 102.035 354.105 102.375 355.125 C103.68903276 355.82894612 105.0270257 356.48845658 106.375 357.125 C110.66102908 360.17033645 114.3108678 363.84995645 117.375 368.125 C117.375 368.785 117.375 369.445 117.375 370.125 C117.973125 370.393125 118.57125 370.66125 119.1875 370.9375 C123.29374762 373.16660585 125.07086603 376.13707582 127.375 380.125 C127.74625 380.65609375 128.1175 381.1871875 128.5 381.734375 C132.19394679 387.13677218 134.21550452 392.88547778 136.26171875 399.05078125 C137.2773388 402.23660707 137.2773388 402.23660707 139.375 405.125 C140.14474834 407.85283078 140.85020266 410.55687795 141.5 413.3125 C141.68175781 414.06208984 141.86351562 414.81167969 142.05078125 415.58398438 C142.49751686 417.42970781 142.9369694 419.27719132 143.375 421.125 C140.735 421.125 138.095 421.125 135.375 421.125 C132.46828225 410.7577067 132.46828225 410.7577067 131.5 405.5625 C130.56097321 401.12201739 128.66335599 397.41739633 126.5390625 393.4296875 C125.375 391.125 125.375 391.125 124.25 387.5625 C123.816875 386.3559375 123.816875 386.3559375 123.375 385.125 C122.385 384.795 121.395 384.465 120.375 384.125 C120.045 383.135 119.715 382.145 119.375 381.125 C118.715 380.795 118.055 380.465 117.375 380.125 C114.375 375.625 114.375 375.625 114.375 373.125 C113.385 372.795 112.395 372.465 111.375 372.125 C109.83203125 370.5234375 109.83203125 370.5234375 108.1875 368.5 C105.04291738 364.76412834 101.65768255 361.65356451 97.87890625 358.5703125 C97.38261719 358.09335937 96.88632812 357.61640625 96.375 357.125 C96.375 356.465 96.375 355.805 96.375 355.125 C95.81941406 354.87878906 95.26382812 354.63257813 94.69140625 354.37890625 C91.93155412 352.88495594 89.72183141 351.07441592 87.3125 349.0625 C86.35085938 348.26972656 85.38921875 347.47695313 84.3984375 346.66015625 C82.3648129 344.95495939 80.35129983 343.23953768 78.3515625 341.49609375 C76.90910156 340.26052734 76.90910156 340.26052734 75.4375 339 C74.12458984 337.85144531 74.12458984 337.85144531 72.78515625 336.6796875 C70.57163379 334.95379191 70.57163379 334.95379191 68.3671875 335.08203125 C65.51687484 336.57425376 63.64932076 338.60980573 61.4375 340.9375 C58.91324697 343.57879722 56.47781629 346.0428928 53.62109375 348.32421875 C51.29881067 349.92896539 51.29881067 349.92896539 50.375 352.125 C49.385 352.125 48.395 352.125 47.375 352.125 C47.045 353.115 46.715 354.105 46.375 355.125 C44.265625 356.7734375 44.265625 356.7734375 41.625 358.5 C37.77705435 361.09448967 34.61527669 363.79214397 31.375 367.125 C29.72238161 368.14804948 28.05708635 369.15116054 26.375 370.125 C25.818125 370.681875 25.26125 371.23875 24.6875 371.8125 C24.254375 372.245625 23.82125 372.67875 23.375 373.125 C22.715 373.125 22.055 373.125 21.375 373.125 C21.045 374.115 20.715 375.105 20.375 376.125 C18.4375 378.3125 18.4375 378.3125 16.375 380.125 C15.715 380.125 15.055 380.125 14.375 380.125 C14.375 380.785 14.375 381.445 14.375 382.125 C12.73046875 383.74609375 12.73046875 383.74609375 10.5625 385.5625 C5.43898997 389.597287 5.43898997 389.597287 2.375 395.125 C-0.0625 397.8125 -0.0625 397.8125 -2.625 400.125 C-3.285 400.125 -3.945 400.125 -4.625 400.125 C-4.00759778 396.11188554 -1.90762093 393.41465958 0.375 390.125 C0.91125 389.17625 1.4475 388.2275 2 387.25 C2.680625 386.198125 2.680625 386.198125 3.375 385.125 C4.035 385.125 4.695 385.125 5.375 385.125 C5.643125 384.485625 5.91125 383.84625 6.1875 383.1875 C7.375 381.125 7.375 381.125 10.375 380.125 C11.10823796 378.10991642 11.10823796 378.10991642 11.375 376.125 C12.365 376.125 13.355 376.125 14.375 376.125 C14.375 375.135 14.375 374.145 14.375 373.125 C15.8359375 371.51953125 15.8359375 371.51953125 17.75 369.9375 C18.37648438 369.40769531 19.00296875 368.87789063 19.6484375 368.33203125 C21.375 367.125 21.375 367.125 23.375 367.125 C23.705 366.135 24.035 365.145 24.375 364.125 C26.06881304 362.58181128 27.82942502 361.11099728 29.625 359.6875 C30.57890625 358.92566406 31.5328125 358.16382813 32.515625 357.37890625 C34.36318293 355.92256619 36.21695836 354.47406398 38.078125 353.03515625 C40.01219031 351.42672439 41.40294753 350.00830016 42.875 348 C45.36021352 345.14200445 46.79849429 344.14685877 50.375 343.125 C50.375 342.465 50.375 341.805 50.375 341.125 C52.1875 339 52.1875 339 54.375 337.125 C55.365 337.125 56.355 337.125 57.375 337.125 C57.375 336.135 57.375 335.145 57.375 334.125 C58.035 334.125 58.695 334.125 59.375 334.125 C59.46136719 333.54234375 59.54773438 332.9596875 59.63671875 332.359375 C60.57987496 329.50495513 61.92935341 328.33569129 64.1875 326.375 C64.87457031 325.76140625 65.56164062 325.1478125 66.26953125 324.515625 C68.375 323.125 68.375 323.125 72.375 323.125 C73.30923645 326.13531744 73.41949911 326.99150268 72.375 330.125 C70.8125 331.8125 70.8125 331.8125 69.375 333.125 C69.890625 333.2075 70.40625 333.29 70.9375 333.375 C74.41955732 334.44640225 77.24700885 336.26023605 80.375 338.125 C80.375 338.785 80.375 339.445 80.375 340.125 C81.035 340.125 81.695 340.125 82.375 340.125 C83.15314885 332.12377179 83.15314885 332.12377179 80.1875 325 C77.55994474 323.07529295 77.55994474 323.07529295 75 322.3125 C70.78035251 320.40361185 68.09133098 316.81249232 65.375 313.125 C65.045 312.135 64.715 311.145 64.375 310.125 C56.56992063 301.36808168 44.18020208 298.96252187 32.875 298.3125 C30.70901376 298.2297092 28.54229726 298.15925326 26.375 298.125 C27.35942972 302.36562031 28.41118915 306.34519555 30.0625 310.375 C31.35055536 314.05515817 31.5029943 314.70316493 30.375 318.125 C28.5625 318.8125 28.5625 318.8125 26.375 319.125 C22.30193169 316.13254165 21.94113226 311.63090651 20.9453125 306.9453125 C19.53048909 297.46793374 19.79824202 288.37463722 22.375 279.125 C21.81216309 279.15118408 21.24932617 279.17736816 20.66943359 279.2043457 C6.95849743 279.75619202 -5.50450141 279.83193247 -17 271.1875 C-19.4246633 268.84791261 -19.60428507 268.28480089 -20.0625 264.75 C-19.8459375 263.450625 -19.8459375 263.450625 -19.625 262.125 C-14.1292138 262.47393881 -9.08499832 263.21232025 -3.75390625 264.62744141 C9.0499046 267.99578339 22.51456578 268.85266209 35.375 265.125 C36.1278125 264.91875 36.880625 264.7125 37.65625 264.5 C44.11826435 262.55254362 50.16543967 259.61284933 55.51171875 255.46875 C57.375 254.125 57.375 254.125 59.375 254.125 C59.705 253.135 60.035 252.145 60.375 251.125 C61.7578125 249.87109375 61.7578125 249.87109375 63.5 248.5625 C74.54365031 239.37075015 81.40675635 224.49968831 83.17724609 210.44580078 C83.86509967 202.37328704 83.59119586 194.21515991 83.375 186.125 C82.83738037 186.40504883 82.29976074 186.68509766 81.74584961 186.97363281 C81.03436768 187.33811523 80.32288574 187.70259766 79.58984375 188.078125 C78.88722412 188.44067383 78.18460449 188.80322266 77.46069336 189.17675781 C69.1222909 192.96773933 58.90694964 191.3840505 50.375 189.125 C49.694375 190.1975 49.01375 191.27 48.3125 192.375 C45.56626957 196.1780663 42.82994817 198.56299535 38.375 200.125 C30.54955665 201.11870709 25.80925826 198.34295846 19.375 194.1875 C17.375 192.125 17.375 192.125 16.9375 189.5 C17.375 187.125 17.375 187.125 19.375 185.125 C23.43814449 185.42597367 26.96102685 188.1019048 30.375 190.125 C33.42483996 191.64991998 36.0173369 191.36062548 39.375 191.125 C41.50370693 190.16382095 41.50370693 190.16382095 42.375 188.125 C42.26711096 183.16210421 40.47946649 180.83033097 37.375 177.125 C37.375 176.135 37.375 175.145 37.375 174.125 C36.385 173.795 35.395 173.465 34.375 173.125 C34.51394148 170.02048451 34.662343 166.91649165 34.8125 163.8125 C34.87147461 162.49088867 34.87147461 162.49088867 34.93164062 161.14257812 C34.97353516 160.29501953 35.01542969 159.44746094 35.05859375 158.57421875 C35.09525146 157.79393311 35.13190918 157.01364746 35.16967773 156.2097168 C35.375 154.125 35.375 154.125 36.375 151.125 C32.74967934 151.26347638 29.12484096 151.41202643 25.5 151.5625 C24.46746094 151.60181641 23.43492187 151.64113281 22.37109375 151.68164062 C20.89189453 151.74448242 20.89189453 151.74448242 19.3828125 151.80859375 C18.47160645 151.84525146 17.56040039 151.88190918 16.62158203 151.91967773 C14.34016519 151.99077065 14.34016519 151.99077065 12.375 153.125 C12.37113281 154.86523438 12.37113281 154.86523438 12.3671875 156.640625 C12.17844674 166.75669567 11.09152172 174.450676 5.375 183.125 C4.87742188 183.89070312 4.37984375 184.65640625 3.8671875 185.4453125 C3.37476563 185.99960938 2.88234375 186.55390625 2.375 187.125 C1.385 187.125 0.395 187.125 -0.625 187.125 C-0.955 188.115 -1.285 189.105 -1.625 190.125 C-2.615 190.125 -3.605 190.125 -4.625 190.125 C-4.625 190.785 -4.625 191.445 -4.625 192.125 C-12.88623742 198.21222757 -22.29563517 198.40812956 -32.16455078 197.52392578 C-38.2400658 196.53887006 -43.70484481 193.77796101 -48.625 190.125 C-48.955 189.135 -49.285 188.145 -49.625 187.125 C-50.615 186.795 -51.605 186.465 -52.625 186.125 C-56.99140734 181.75859266 -58.79488331 174.91808744 -58.875 168.875 C-58.6727856 165.84178397 -58.36059974 163.06739895 -57.625 160.125 C-58.635625 160.00125 -59.64625 159.8775 -60.6875 159.75 C-63.76300858 159.26182403 -66.49707064 158.57169344 -69.45703125 157.6640625 C-73.52254926 156.65317694 -77.68657808 156.16705875 -81.83203125 155.58984375 C-84.625 155.125 -84.625 155.125 -86.625 154.125 C-86.60179687 154.75148437 -86.57859375 155.37796875 -86.5546875 156.0234375 C-86.53664062 156.84070313 -86.51859375 157.65796875 -86.5 158.5 C-86.47679687 159.31210938 -86.45359375 160.12421875 -86.4296875 160.9609375 C-86.625 163.125 -86.625 163.125 -88.625 165.125 C-89.945 165.125 -91.265 165.125 -92.625 165.125 C-92.625 164.465 -92.625 163.805 -92.625 163.125 C-93.285 163.125 -93.945 163.125 -94.625 163.125 C-96.24609375 161.4453125 -96.24609375 161.4453125 -98.0625 159.25 C-102.35671451 154.07468316 -105.73315144 152.74946828 -112.3125 152 C-113.01439453 151.91363281 -113.71628906 151.82726562 -114.43945312 151.73828125 C-116.16711145 151.52673125 -117.8959566 151.324914 -119.625 151.125 C-119.81835938 151.87265625 -120.01171875 152.6203125 -120.2109375 153.390625 C-120.47132813 154.37546875 -120.73171875 155.3603125 -121 156.375 C-121.25523438 157.34953125 -121.51046875 158.3240625 -121.7734375 159.328125 C-122.625 162.125 -122.625 162.125 -123.65942383 163.99926758 C-125.45700745 167.95667861 -124.95208275 172.28392037 -124.9375 176.5625 C-124.95361328 177.50416016 -124.96972656 178.44582031 -124.98632812 179.41601562 C-124.99074932 185.68084935 -124.37571569 189.26703164 -119.921875 193.89453125 C-116.67244091 195.63529951 -113.48188661 195.69317955 -109.875 195.8125 C-109.17761719 195.84666016 -108.48023438 195.88082031 -107.76171875 195.91601562 C-106.05002892 195.99808295 -104.3375424 196.06322919 -102.625 196.125 C-102.625 198.105 -102.625 200.085 -102.625 202.125 C-103.285 202.125 -103.945 202.125 -104.625 202.125 C-104.625 202.785 -104.625 203.445 -104.625 204.125 C-103.861875 204.310625 -103.09875 204.49625 -102.3125 204.6875 C-99.15079247 206.37864589 -98.76244449 207.72529447 -97.56640625 210.9921875 C-95.60669324 215.43203523 -92.4933387 219.23651313 -89.625 223.125 C-88.965 224.053125 -88.305 224.98125 -87.625 225.9375 C-85.78863826 227.94602065 -84.09687721 229.27496097 -81.875 230.8125 C-80.8025 231.575625 -79.73 232.33875 -78.625 233.125 C-78.625 233.785 -78.625 234.445 -78.625 235.125 C-77.305 235.785 -75.985 236.445 -74.625 237.125 C-74.625 237.785 -74.625 238.445 -74.625 239.125 C-74.03976563 239.21265625 -73.45453125 239.3003125 -72.8515625 239.390625 C-67.95765923 241.0047545 -64.58019322 246.38073412 -62.1875 250.75 C-61.51199783 253.60212029 -61.48918115 256.20489471 -61.625 259.125 C-62.945 259.785 -64.265 260.445 -65.625 261.125 C-65.295 261.455 -64.965 261.785 -64.625 262.125 C-63.51791819 275.8528145 -71.09242688 289.70952265 -79.6875 300.125 C-82.73138527 303.42044604 -86.13902869 306.30940779 -89.625 309.125 C-88.8825 309.805625 -88.8825 309.805625 -88.125 310.5 C-86.625 312.125 -86.625 312.125 -86.625 314.125 C-85.75875 314.2178125 -85.75875 314.2178125 -84.875 314.3125 C-81.73198594 315.4474773 -80.62597824 317.49871606 -78.625 320.125 C-77.8825 320.681875 -77.14 321.23875 -76.375 321.8125 C-75.7975 322.245625 -75.22 322.67875 -74.625 323.125 C-74.625 323.785 -74.625 324.445 -74.625 325.125 C-73.81289063 325.44984375 -73.81289063 325.44984375 -72.984375 325.78125 C-69.80854656 327.58999997 -67.41771919 330.04223799 -64.875 332.625 C-64.36839844 333.12386719 -63.86179688 333.62273437 -63.33984375 334.13671875 C-59.625 337.87158861 -59.625 337.87158861 -59.625 340.125 C-59.05265625 340.3725 -58.4803125 340.62 -57.890625 340.875 C-55.27489389 342.31816199 -53.47726544 344.00716222 -51.375 346.125 C-50.66859375 346.82625 -49.9621875 347.5275 -49.234375 348.25 C-47.625 350.125 -47.625 350.125 -47.625 352.125 C-47.068125 352.33125 -46.51125 352.5375 -45.9375 352.75 C-43.33704706 354.29621526 -41.77747074 356.19417296 -39.91015625 358.546875 C-37.1917581 361.88496878 -33.98419951 364.78212774 -30.875 367.75 C-28.625 370.125 -28.625 370.125 -27.625 373.125 C-26.635 373.455 -25.645 373.785 -24.625 374.125 C-23.59486723 375.77321244 -22.59385372 377.44003702 -21.625 379.125 C-20.965 379.455 -20.305 379.785 -19.625 380.125 C-19.625 380.785 -19.625 381.445 -19.625 382.125 C-16.62507271 380.83355022 -16.62507271 380.83355022 -13.625 379.125 C-13.295 378.135 -12.965 377.145 -12.625 376.125 C-11.635 376.125 -10.645 376.125 -9.625 376.125 C-9.625 375.135 -9.625 374.145 -9.625 373.125 C-8.965 373.125 -8.305 373.125 -7.625 373.125 C-7.25375 372.2896875 -7.25375 372.2896875 -6.875 371.4375 C-5.39575182 368.70089087 -3.69032561 366.44849131 -1.625 364.125 C-0.965 364.125 -0.305 364.125 0.375 364.125 C0.684375 363.50625 0.99375 362.8875 1.3125 362.25 C2 360.875 2.6875 359.5 3.375 358.125 C4.035 358.125 4.695 358.125 5.375 358.125 C5.684375 357.50625 5.99375 356.8875 6.3125 356.25 C7 354.875 7.6875 353.5 8.375 352.125 C9.035 352.125 9.695 352.125 10.375 352.125 C10.705 350.805 11.035 349.485 11.375 348.125 C12.035 348.125 12.695 348.125 13.375 348.125 C14.035 346.475 14.695 344.825 15.375 343.125 C16.035 343.125 16.695 343.125 17.375 343.125 C17.684375 342.135 17.684375 342.135 18 341.125 C19.21752405 338.4685839 20.41354817 336.65514374 22.1875 334.375 C25.42347621 330.20878002 27.93381511 325.79133571 30.375 321.125 C31.035 321.125 31.695 321.125 32.375 321.125 C32.49875 320.5475 32.6225 319.97 32.75 319.375 C33.79728454 315.60477564 35.22409637 312.54877202 38.375 310.125 C39.695 310.125 41.015 310.125 42.375 310.125 C41.94326496 316.27722436 40.72094658 319.94417949 37.375 325.125 C36.715 325.125 36.055 325.125 35.375 325.125 C34.29974806 327.77728812 33.28043849 330.40868454 32.375 333.125 C31.715 333.455 31.055 333.785 30.375 334.125 C30.045 335.115 29.715 336.105 29.375 337.125 C28.715 337.125 28.055 337.125 27.375 337.125 C27.08625 337.888125 26.7975 338.65125 26.5 339.4375 C25.375 342.125 25.375 342.125 23.375 345.125 C22.715 345.125 22.055 345.125 21.375 345.125 C21.065625 346.115 21.065625 346.115 20.75 347.125 C18.88375748 351.19680186 16.39938473 354.81296998 13.375 358.125 C12.715 358.125 12.055 358.125 11.375 358.125 C11.00375 358.929375 11.00375 358.929375 10.625 359.75 C7.90588694 364.91631482 4.73528854 369.2236892 0.375 373.125 C-0.285 373.125 -0.945 373.125 -1.625 373.125 C-1.625 374.115 -1.625 375.105 -1.625 376.125 C-3.5 378.3125 -3.5 378.3125 -5.625 380.125 C-6.285 380.125 -6.945 380.125 -7.625 380.125 C-7.99625 380.99125 -7.99625 380.99125 -8.375 381.875 C-9.8817975 384.58723549 -11.13743613 386.24251924 -13.625 388.125 C-17.81788671 388.60361727 -19.97497798 388.52318103 -23.609375 386.296875 C-24.52203125 385.49765625 -25.4346875 384.6984375 -26.375 383.875 C-27.29796875 383.08609375 -28.2209375 382.2971875 -29.171875 381.484375 C-31.28329039 379.45365065 -33.04740389 377.58604993 -34.625 375.125 C-34.625 374.465 -34.625 373.805 -34.625 373.125 C-35.615 372.795 -36.605 372.465 -37.625 372.125 C-37.625 371.465 -37.625 370.805 -37.625 370.125 C-38.285 370.125 -38.945 370.125 -39.625 370.125 C-41.0703125 368.69140625 -41.0703125 368.69140625 -42.75 366.6875 C-43.36488281 365.965625 -43.97976562 365.24375 -44.61328125 364.5 C-45.27714844 363.71625 -45.94101563 362.9325 -46.625 362.125 C-48.05665636 360.47408096 -49.49406247 358.82812845 -50.9375 357.1875 C-51.59363281 356.43597656 -52.24976563 355.68445313 -52.92578125 354.91015625 C-54.51454848 353.03875803 -54.51454848 353.03875803 -56.625 352.125 C-57.058125 351.361875 -57.49125 350.59875 -57.9375 349.8125 C-59.79847999 346.84871705 -61.89361876 345.26581233 -64.625 343.125 C-64.625 342.465 -64.625 341.805 -64.625 341.125 C-65.615 340.795 -66.605 340.465 -67.625 340.125 C-69.8125 338.1875 -69.8125 338.1875 -71.625 336.125 C-71.625 335.465 -71.625 334.805 -71.625 334.125 C-72.615 333.795 -73.605 333.465 -74.625 333.125 C-74.625 332.135 -74.625 331.145 -74.625 330.125 C-75.264375 329.856875 -75.90375 329.58875 -76.5625 329.3125 C-78.625 328.125 -78.625 328.125 -79.625 325.125 C-80.94620648 324.43461194 -82.28116101 323.77022786 -83.625 323.125 C-85.17724609 321.58447266 -85.17724609 321.58447266 -86.6484375 319.7890625 C-87.195 319.13679688 -87.7415625 318.48453125 -88.3046875 317.8125 C-89.42791359 316.44599452 -90.55032023 315.07881504 -91.671875 313.7109375 C-95.0249249 309.71246484 -98.12056553 306.77866985 -102.625 304.125 C-101.635 303.795 -100.645 303.465 -99.625 303.125 C-97.94003702 304.09385372 -96.27321244 305.09486723 -94.625 306.125 C-93.635 306.125 -92.645 306.125 -91.625 306.125 C-90.78473604 304.35744474 -89.95301278 302.58582737 -89.125 300.8125 C-88.6609375 299.82636719 -88.196875 298.84023438 -87.71875 297.82421875 C-86.43722528 295.14699874 -86.43722528 295.14699874 -86.625 292.125 C-88.988866 291.40199543 -91.35501576 290.68970125 -93.7265625 289.9921875 C-95.56346866 289.44260102 -97.39307144 288.86742921 -99.2109375 288.2578125 C-107.53286274 285.63378202 -117.7105492 283.92379689 -125.88671875 287.5859375 C-126.79035156 288.09382813 -127.69398437 288.60171875 -128.625 289.125 C-129.615 289.455 -130.605 289.785 -131.625 290.125 C-132.34955635 291.76732772 -133.00274395 293.44124835 -133.625 295.125 C-135.75557997 299.62289105 -137.58112543 303.06693503 -142.1875 305.4296875 C-146.21168626 306.57761243 -150.33913461 306.5535538 -154.49682617 306.69946289 C-163.63101035 307.10451008 -170.87196918 310.50617313 -178.625 315.125 C-179.285 315.125 -179.945 315.125 -180.625 315.125 C-180.955 316.115 -181.285 317.105 -181.625 318.125 C-182.285 318.125 -182.945 318.125 -183.625 318.125 C-183.625 323.075 -183.625 328.025 -183.625 333.125 C-178.74450077 333.125 -174.78522195 330.74897525 -170.4375 328.6875 C-166.18969445 326.75257662 -162.02905107 325.18773207 -157.53515625 323.94140625 C-155.25374056 323.30138493 -153.00340405 322.61961484 -150.74609375 321.90234375 C-141.38792623 318.96950804 -132.39656922 317.07797691 -122.625 316.125 C-122.625 316.785 -122.625 317.445 -122.625 318.125 C-123.54023437 318.46273438 -124.45546875 318.80046875 -125.3984375 319.1484375 C-126.58695312 319.59445312 -127.77546875 320.04046875 -129 320.5 C-130.18335938 320.94085938 -131.36671875 321.38171875 -132.5859375 321.8359375 C-135.66993446 322.9200342 -135.66993446 322.9200342 -137.625 325.125 C-139.27321835 325.64579122 -140.9447555 326.09425914 -142.625 326.5 C-150.14108113 328.4598647 -156.98610382 331.23933561 -163.875 334.8125 C-167.46524038 336.65858575 -170.54572466 337.80295195 -174.625 338.125 C-174.625 338.785 -174.625 339.445 -174.625 340.125 C-175.5428125 340.56070312 -176.460625 340.99640625 -177.40625 341.4453125 C-183.7670439 344.51565212 -189.70713799 347.5086062 -195.171875 352.05859375 C-196.625 353.125 -196.625 353.125 -198.625 353.125 C-198.625 353.785 -198.625 354.445 -198.625 355.125 C-202.08653846 358.125 -202.08653846 358.125 -204.625 358.125 C-204.955 359.115 -205.285 360.105 -205.625 361.125 C-206.285 361.125 -206.945 361.125 -207.625 361.125 C-207.955 362.115 -208.285 363.105 -208.625 364.125 C-209.93766518 365.47868596 -211.27067325 366.81299596 -212.625 368.125 C-212.955 368.785 -213.285 369.445 -213.625 370.125 C-214.285 370.125 -214.945 370.125 -215.625 370.125 C-215.88539063 370.68574219 -216.14578125 371.24648438 -216.4140625 371.82421875 C-217.7537512 374.36962729 -219.31760566 376.60492269 -221 378.9375 C-223.80680714 382.89281277 -226.31025597 386.86587098 -228.625 391.125 C-229.285 391.125 -229.945 391.125 -230.625 391.125 C-230.851875 391.970625 -231.07875 392.81625 -231.3125 393.6875 C-232.57741015 397.00035992 -234.22287038 399.32390092 -236.29907227 402.16088867 C-238.94008155 406.07304476 -240.78790391 410.41607759 -242.76171875 414.69140625 C-243.64527559 416.53821329 -244.62862824 418.33653354 -245.625 420.125 C-246.615 420.455 -247.605 420.785 -248.625 421.125 C-248.679348 419.0627952 -248.71794961 417.00017184 -248.75 414.9375 C-248.77320313 413.78894531 -248.79640625 412.64039063 -248.8203125 411.45703125 C-248.62984152 408.20759628 -248.01860127 406.03839479 -246.625 403.125 C-245.965 403.125 -245.305 403.125 -244.625 403.125 C-244.5425 402.444375 -244.46 401.76375 -244.375 401.0625 C-242.80880451 394.92823433 -238.76687036 389.76002292 -235.25390625 384.57421875 C-233.52778948 381.97883454 -231.89083435 379.33750353 -230.25 376.6875 C-226.11823368 370.15930922 -221.47756345 363.25421291 -215.625 358.125 C-214.965 358.125 -214.305 358.125 -213.625 358.125 C-213.25375 357.25101562 -213.25375 357.25101562 -212.875 356.359375 C-211.43974554 353.79385764 -209.84836987 352.28775202 -207.625 350.375 C-206.92375 349.76140625 -206.2225 349.1478125 -205.5 348.515625 C-203.625 347.125 -203.625 347.125 -201.625 347.125 C-201.625 346.465 -201.625 345.805 -201.625 345.125 C-199.875 343.8359375 -199.875 343.8359375 -197.625 342.5 C-196.8825 342.05398438 -196.14 341.60796875 -195.375 341.1484375 C-194.7975 340.81070312 -194.22 340.47296875 -193.625 340.125 C-194.285 339.465 -194.945 338.805 -195.625 338.125 C-195.87966505 335.20523562 -195.9953262 332.42112689 -196 329.5 C-196.02449219 328.71753906 -196.04898438 327.93507813 -196.07421875 327.12890625 C-196.10416364 321.1099843 -194.6365458 317.32676093 -191.625 312.125 C-190.965 312.125 -190.305 312.125 -189.625 312.125 C-189.625 311.135 -189.625 310.145 -189.625 309.125 C-188.635 309.125 -187.645 309.125 -186.625 309.125 C-186.295 308.135 -185.965 307.145 -185.625 306.125 C-183.33203125 304.58984375 -183.33203125 304.58984375 -180.4375 303.0625 C-179.49519531 302.55589844 -178.55289063 302.04929687 -177.58203125 301.52734375 C-169.78425824 297.82932458 -162.35919757 297.48494611 -153.859375 296.9140625 C-152.36277344 296.80191406 -152.36277344 296.80191406 -150.8359375 296.6875 C-149.93149902 296.62691406 -149.02706055 296.56632812 -148.09521484 296.50390625 C-145.56907099 296.11642105 -143.82689965 295.39386956 -141.625 294.125 C-141.625 292.805 -141.625 291.485 -141.625 290.125 C-140.965 290.125 -140.305 290.125 -139.625 290.125 C-139.625 289.465 -139.625 288.805 -139.625 288.125 C-138.965 288.125 -138.305 288.125 -137.625 288.125 C-137.625 287.135 -137.625 286.145 -137.625 285.125 C-134.81379344 281.32160289 -130.08575246 278.54584193 -125.44799805 277.75268555 C-123.11962495 277.6256287 -120.83083663 277.62758629 -118.5 277.6875 C-117.71496094 277.68041016 -116.92992187 277.67332031 -116.12109375 277.66601562 C-111.37646652 277.7180225 -108.58615507 278.32203733 -104.625 281.125 C-102.97295544 281.82711894 -101.30576231 282.49471413 -99.625 283.125 C-96.07318284 284.51391955 -92.72287915 285.85322196 -89.625 288.125 C-89.625 288.785 -89.625 289.445 -89.625 290.125 C-87.645 290.455 -85.665 290.785 -83.625 291.125 C-83.50125 290.196875 -83.3775 289.26875 -83.25 288.3125 C-82.625 285.125 -82.625 285.125 -80.625 282.125 C-80.05876091 279.99148449 -80.05876091 279.99148449 -79.6875 277.625 C-78.96533693 273.8070526 -78.18542942 270.02205594 -77.25 266.25 C-77.03601563 265.36570312 -76.82203125 264.48140625 -76.6015625 263.5703125 C-75.45230041 260.69256024 -73.92687995 259.16164275 -71.625 257.125 C-72.099375 256.3825 -72.57375 255.64 -73.0625 254.875 C-74.625 252.125 -74.625 252.125 -75.0625 249.9375 C-75.4736428 247.90504532 -75.4736428 247.90504532 -77.6875 246.875 C-78.6465625 246.50375 -78.6465625 246.50375 -79.625 246.125 C-79.625 245.465 -79.625 244.805 -79.625 244.125 C-80.945 243.465 -82.265 242.805 -83.625 242.125 C-83.625 241.465 -83.625 240.805 -83.625 240.125 C-84.945 239.465 -86.265 238.805 -87.625 238.125 C-87.625 237.465 -87.625 236.805 -87.625 236.125 C-88.2025 235.8775 -88.78 235.63 -89.375 235.375 C-92.01204101 233.90997722 -93.69858864 232.44997923 -95.625 230.125 C-96.375 227.375 -96.375 227.375 -96.625 225.125 C-97.285 225.125 -97.945 225.125 -98.625 225.125 C-98.625 224.135 -98.625 223.145 -98.625 222.125 C-99.615 222.785 -100.605 223.445 -101.625 224.125 C-105.65002135 223.77499814 -108.90729089 222.61208364 -112.625 221.125 C-114.6174325 220.74906934 -116.6168674 220.40520455 -118.625 220.125 C-119.91071429 211.55357143 -119.91071429 211.55357143 -118.625 208.125 C-117.965 208.125 -117.305 208.125 -116.625 208.125 C-116.625 207.465 -116.625 206.805 -116.625 206.125 C-117.718125 206.00125 -118.81125 205.8775 -119.9375 205.75 C-123.625 205.125 -123.625 205.125 -126.625 203.125 C-126.625 202.465 -126.625 201.805 -126.625 201.125 C-127.2025 200.91875 -127.78 200.7125 -128.375 200.5 C-132.39686006 198.04219663 -134.24789216 194.63343138 -135.375 190.125 C-136.41168981 179.01760917 -136.95472702 167.11823815 -131.625 157.125 C-130.91741674 153.8883037 -130.91741674 153.8883037 -130.625 151.125 C-133.14863988 151.75033375 -133.14863988 151.75033375 -135.625 153.125 C-136.51886164 155.67275306 -136.51886164 155.67275306 -136.625 158.125 C-138.275 158.125 -139.925 158.125 -141.625 158.125 C-141.97207158 152.83215835 -141.97207158 152.83215835 -141.625 150.125 C-139.8125 148.125 -139.8125 148.125 -137.625 147.125 C-136.635 147.125 -135.645 147.125 -134.625 147.125 C-135.08519531 146.42246094 -135.54539062 145.71992188 -136.01953125 144.99609375 C-140.80759409 136.43349962 -140.9031222 126.32381709 -140.9375 116.75 C-140.94559692 115.35986694 -140.94559692 115.35986694 -140.95385742 113.94165039 C-140.89576475 108.32383651 -140.13158641 103.52995202 -138.625 98.125 C-138.45910681 96.712538 -138.32505064 95.29518902 -138.25 93.875 C-136.95332011 81.39711324 -130.53416131 68.48874196 -123.625 58.125 C-125.11 57.135 -125.11 57.135 -126.625 56.125 C-126.8125 52.5 -126.8125 52.5 -126.625 49.125 C-125.99722656 48.898125 -125.36945313 48.67125 -124.72265625 48.4375 C-121.91502969 46.68077277 -121.79614458 45.29951238 -121.0625 42.125 C-119.94187715 37.33625144 -119.94187715 37.33625144 -116.625 35.125 C-114.02254502 34.98278935 -111.53382316 34.93697068 -108.9375 35 C-108.23560547 35.00902344 -107.53371094 35.01804688 -106.81054688 35.02734375 C-105.08188475 35.05086296 -103.35339855 35.08673287 -101.625 35.125 C-101.625 34.465 -101.625 33.805 -101.625 33.125 C-98.78371915 30.59941702 -96.00190821 28.8134541 -92.625 27.125 C-92.295 26.465 -91.965 25.805 -91.625 25.125 C-89.97061387 24.42841637 -88.30245682 23.76403117 -86.625 23.125 C-85.635 22.465 -84.645 21.805 -83.625 21.125 C-82.305 21.125 -80.985 21.125 -79.625 21.125 C-79.625 20.465 -79.625 19.805 -79.625 19.125 C-77.83374151 18.37402565 -76.04196564 17.62428538 -74.25 16.875 C-73.25226563 16.45734375 -72.25453125 16.0396875 -71.2265625 15.609375 C-70.03804687 15.11953125 -68.84953125 14.6296875 -67.625 14.125 C-66.49602295 13.65139038 -66.49602295 13.65139038 -65.34423828 13.16821289 C-59.40485226 10.72138192 -53.43876011 8.77288365 -47.25 7.0625 C-45.87038086 6.67735229 -45.87038086 6.67735229 -44.46289062 6.28442383 C-42.65484298 5.78217065 -40.8459543 5.28293267 -39.03613281 4.78710938 C-37.03929189 4.23876667 -35.04643085 3.67595407 -33.0546875 3.109375 C-22.13632383 0.13958008 -11.24585301 0.04593821 0 0 Z " fill="#020202" transform="translate(248.625,38.875)"/>
<path d="M0 0 C0.4021875 0.928125 0.4021875 0.928125 0.8125 1.875 C1.95556848 4.2995233 1.95556848 4.2995233 5 6 C5 6.66 5 7.32 5 8 C6.98 8.495 6.98 8.495 9 9 C9.33 22.86 9.66 36.72 10 51 C8.35 50.34 6.7 49.68 5 49 C2.01348808 48.94505215 2.01348808 48.94505215 -1.125 49.1875 C-8.16415376 49.33148269 -12.88945844 47.24689055 -19 44 C-23.52741172 42.49086276 -28.06426798 42.22570719 -32.5 44 C-32.995 44.33 -33.49 44.66 -34 45 C-32.9415039 48.74124249 -32.9415039 48.74124249 -31 52 C-28.10449136 53.48882536 -25.17144295 54.30188363 -22 55 C-22.6895191 58.98575676 -24.32190787 60.17658035 -27.5 62.62890625 C-29.77381751 64.70731757 -30.82602941 67.19551469 -32 70 C-32.66 70 -33.32 70 -34 70 C-34 70.66 -34 71.32 -34 72 C-34.969375 71.835 -35.93875 71.67 -36.9375 71.5 C-44.74476705 70.42964887 -50.76570333 70.77601996 -58 74 C-58.99 74.391875 -59.98 74.78375 -61 75.1875 C-61.99 75.5896875 -61.99 75.5896875 -63 76 C-63.30292969 75.40832031 -63.60585938 74.81664062 -63.91796875 74.20703125 C-66.49625956 69.34397813 -69.01146698 65.76061685 -73 62 C-73 61.34 -73 60.68 -73 60 C-73.8353125 59.814375 -73.8353125 59.814375 -74.6875 59.625 C-77.22114364 58.94023145 -79.57921032 58.00866237 -82 57 C-82 56.67 -82 56.34 -82 56 C-79.03 55.34 -76.06 54.68 -73 54 C-73.495 50.04 -73.495 50.04 -74 46 C-80.9796856 43.67343813 -87.06569798 44.89903536 -93.69921875 47.77734375 C-96.89402306 49.47509205 -99.31702675 51.58532408 -102 54 C-102.66 54 -103.32 54 -104 54 C-104.33 54.99 -104.66 55.98 -105 57 C-106.90876254 57.90415068 -108.81851561 58.80629861 -110.734375 59.6953125 C-114.82629845 62.051696 -117.81717669 65.5631154 -121 69 C-121.54785156 69.52207031 -122.09570312 70.04414063 -122.66015625 70.58203125 C-124.46019263 72.48702602 -125.10201674 74.56261687 -126 77 C-128.36161611 79.36161611 -134.27060868 78.18545023 -137.4375 78.1875 C-138.87899414 78.20586914 -138.87899414 78.20586914 -140.34960938 78.22460938 C-146.79837287 78.23765475 -152.73278347 77.51633135 -159 76 C-159.33453303 69.64387235 -158.54232684 64.00531858 -157.20117188 57.78393555 C-156.34013549 53.77882677 -155.69031354 49.81397745 -155.1875 45.75 C-154.33372824 39.9472462 -152.79454054 34.46507801 -151.0625 28.875 C-150.80944092 28.04452148 -150.55638184 27.21404297 -150.2956543 26.35839844 C-150.04468994 25.57754883 -149.79372559 24.79669922 -149.53515625 23.9921875 C-149.20076538 22.94587158 -149.20076538 22.94587158 -148.85961914 21.87841797 C-147.85308494 19.67896494 -146.90603202 18.49086501 -145 17 C-143.01049805 16.41577148 -143.01049805 16.41577148 -140.76171875 16.12109375 C-139.94123047 16.00443359 -139.12074219 15.88777344 -138.27539062 15.76757812 C-137.42138672 15.65865234 -136.56738281 15.54972656 -135.6875 15.4375 C-130.23352173 14.70724277 -125.18628964 13.93170498 -120 12 C-113.72031961 10.00328128 -107.44957192 8.3523296 -101 7 C-101.33 7.680625 -101.66 8.36125 -102 9.0625 C-103.1730905 12.50845336 -103.06818412 15.38198027 -103 19 C-94.06422136 19.69689781 -86.02304969 18.64875166 -77.3125 16.75 C-76.36366943 16.54544189 -75.41483887 16.34088379 -74.43725586 16.13012695 C-66.72507693 14.36660026 -58.63792094 12.42528063 -52 8 C-45.60358662 5.58357717 -39.81046752 4.89370609 -33 5.0625 C-21.63216376 5.12956688 -10.63917799 0 0 0 Z " fill="#FCFCFC" transform="translate(321,114)"/>
<path d="M0 0 C2.67965306 1.38304674 3.57051271 2.26602543 4.9375 5 C7.05689133 17.28225581 -0.76127359 29.06486244 -7.0625 39 C-10.7196184 44.08971223 -15.20345936 48.07539025 -20.0625 52 C-19.5675 52.45375 -19.0725 52.9075 -18.5625 53.375 C-17.0625 55 -17.0625 55 -17.0625 57 C-16.485 57.061875 -15.9075 57.12375 -15.3125 57.1875 C-12.16948594 58.3224773 -11.06347824 60.37371606 -9.0625 63 C-8.32 63.556875 -7.5775 64.11375 -6.8125 64.6875 C-6.235 65.120625 -5.6575 65.55375 -5.0625 66 C-5.0625 66.66 -5.0625 67.32 -5.0625 68 C-4.52109375 68.2165625 -3.9796875 68.433125 -3.421875 68.65625 C-0.24604656 70.46499997 2.14478081 72.91723799 4.6875 75.5 C5.19410156 75.99886719 5.70070312 76.49773437 6.22265625 77.01171875 C9.9375 80.74658861 9.9375 80.74658861 9.9375 83 C10.50984375 83.2475 11.0821875 83.495 11.671875 83.75 C14.28760611 85.19316199 16.08523456 86.88216222 18.1875 89 C18.89390625 89.70125 19.6003125 90.4025 20.328125 91.125 C21.9375 93 21.9375 93 21.9375 95 C22.494375 95.20625 23.05125 95.4125 23.625 95.625 C26.22545294 97.17121526 27.78502926 99.06917296 29.65234375 101.421875 C32.3707419 104.75996878 35.57830049 107.65712774 38.6875 110.625 C40.9375 113 40.9375 113 41.9375 116 C42.9275 116.33 43.9175 116.66 44.9375 117 C45.96763277 118.64821244 46.96864628 120.31503702 47.9375 122 C48.5975 122.33 49.2575 122.66 49.9375 123 C49.9375 123.66 49.9375 124.32 49.9375 125 C52.93742729 123.70855022 52.93742729 123.70855022 55.9375 122 C56.2675 121.01 56.5975 120.02 56.9375 119 C57.9275 119 58.9175 119 59.9375 119 C59.9375 118.01 59.9375 117.02 59.9375 116 C60.5975 116 61.2575 116 61.9375 116 C62.185 115.443125 62.4325 114.88625 62.6875 114.3125 C64.16674818 111.57589087 65.87217439 109.32349131 67.9375 107 C68.5975 107 69.2575 107 69.9375 107 C70.246875 106.38125 70.55625 105.7625 70.875 105.125 C71.5625 103.75 72.25 102.375 72.9375 101 C73.5975 101 74.2575 101 74.9375 101 C75.246875 100.38125 75.55625 99.7625 75.875 99.125 C76.5625 97.75 77.25 96.375 77.9375 95 C78.5975 95 79.2575 95 79.9375 95 C80.2675 93.68 80.5975 92.36 80.9375 91 C81.5975 91 82.2575 91 82.9375 91 C83.5975 89.35 84.2575 87.7 84.9375 86 C85.5975 86 86.2575 86 86.9375 86 C87.246875 85.01 87.246875 85.01 87.5625 84 C88.78002405 81.3435839 89.97604817 79.53014374 91.75 77.25 C94.98597621 73.08378002 97.49631511 68.66633571 99.9375 64 C100.5975 64 101.2575 64 101.9375 64 C102.06125 63.4225 102.185 62.845 102.3125 62.25 C103.35978454 58.47977564 104.78659637 55.42377202 107.9375 53 C109.2575 53 110.5775 53 111.9375 53 C111.50576496 59.15222436 110.28344658 62.81917949 106.9375 68 C106.2775 68 105.6175 68 104.9375 68 C103.86224806 70.65228812 102.84293849 73.28368454 101.9375 76 C101.2775 76.33 100.6175 76.66 99.9375 77 C99.6075 77.99 99.2775 78.98 98.9375 80 C98.2775 80 97.6175 80 96.9375 80 C96.64875 80.763125 96.36 81.52625 96.0625 82.3125 C94.9375 85 94.9375 85 92.9375 88 C92.2775 88 91.6175 88 90.9375 88 C90.628125 88.99 90.628125 88.99 90.3125 90 C88.44625748 94.07180186 85.96188473 97.68796998 82.9375 101 C82.2775 101 81.6175 101 80.9375 101 C80.69 101.53625 80.4425 102.0725 80.1875 102.625 C77.46838694 107.79131482 74.29778854 112.0986892 69.9375 116 C69.2775 116 68.6175 116 67.9375 116 C67.9375 116.99 67.9375 117.98 67.9375 119 C66.0625 121.1875 66.0625 121.1875 63.9375 123 C63.2775 123 62.6175 123 61.9375 123 C61.56625 123.86625 61.56625 123.86625 61.1875 124.75 C59.6807025 127.46223549 58.42506387 129.11751924 55.9375 131 C51.74461329 131.47861727 49.58752202 131.39818103 45.953125 129.171875 C45.04046875 128.37265625 44.1278125 127.5734375 43.1875 126.75 C42.26453125 125.96109375 41.3415625 125.1721875 40.390625 124.359375 C38.27920961 122.32865065 36.51509611 120.46104993 34.9375 118 C34.9375 117.34 34.9375 116.68 34.9375 116 C33.9475 115.67 32.9575 115.34 31.9375 115 C31.9375 114.34 31.9375 113.68 31.9375 113 C31.2775 113 30.6175 113 29.9375 113 C28.4921875 111.56640625 28.4921875 111.56640625 26.8125 109.5625 C26.19761719 108.840625 25.58273438 108.11875 24.94921875 107.375 C24.28535156 106.59125 23.62148437 105.8075 22.9375 105 C21.50584364 103.34908096 20.06843753 101.70312845 18.625 100.0625 C17.96886719 99.31097656 17.31273437 98.55945313 16.63671875 97.78515625 C15.04795152 95.91375803 15.04795152 95.91375803 12.9375 95 C12.504375 94.236875 12.07125 93.47375 11.625 92.6875 C9.76402001 89.72371705 7.66888124 88.14081233 4.9375 86 C4.9375 85.34 4.9375 84.68 4.9375 84 C3.9475 83.67 2.9575 83.34 1.9375 83 C-0.25 81.0625 -0.25 81.0625 -2.0625 79 C-2.0625 78.34 -2.0625 77.68 -2.0625 77 C-3.0525 76.67 -4.0425 76.34 -5.0625 76 C-5.0625 75.01 -5.0625 74.02 -5.0625 73 C-5.701875 72.731875 -6.34125 72.46375 -7 72.1875 C-9.0625 71 -9.0625 71 -10.0625 68 C-11.38370648 67.30961194 -12.71866101 66.64522786 -14.0625 66 C-15.61474609 64.45947266 -15.61474609 64.45947266 -17.0859375 62.6640625 C-17.90578125 61.68566406 -17.90578125 61.68566406 -18.7421875 60.6875 C-19.86541359 59.32099452 -20.98782023 57.95381504 -22.109375 56.5859375 C-25.4624249 52.58746484 -28.55806553 49.65366985 -33.0625 47 C-32.0725 46.67 -31.0825 46.34 -30.0625 46 C-28.37753702 46.96885372 -26.71071244 47.96986723 -25.0625 49 C-24.0725 49 -23.0825 49 -22.0625 49 C-21.22223604 47.23244474 -20.39051278 45.46082737 -19.5625 43.6875 C-19.0984375 42.70136719 -18.634375 41.71523438 -18.15625 40.69921875 C-16.87472528 38.02199874 -16.87472528 38.02199874 -17.0625 35 C-19.426366 34.27699543 -21.79251576 33.56470125 -24.1640625 32.8671875 C-26.00096866 32.31760102 -27.83057144 31.74242921 -29.6484375 31.1328125 C-37.97036274 28.50878202 -48.1480492 26.79879689 -56.32421875 30.4609375 C-57.22785156 30.96882813 -58.13148437 31.47671875 -59.0625 32 C-60.5475 32.495 -60.5475 32.495 -62.0625 33 C-62.78705635 34.64232772 -63.44024395 36.31624835 -64.0625 38 C-66.19307997 42.49789105 -68.01862543 45.94193503 -72.625 48.3046875 C-76.64918626 49.45261243 -80.77663461 49.4285538 -84.93432617 49.57446289 C-94.06851035 49.97951008 -101.30946918 53.38117313 -109.0625 58 C-109.7225 58 -110.3825 58 -111.0625 58 C-111.3925 58.99 -111.7225 59.98 -112.0625 61 C-112.7225 61 -113.3825 61 -114.0625 61 C-114.0625 65.95 -114.0625 70.9 -114.0625 76 C-109.18200077 76 -105.22272195 73.62397525 -100.875 71.5625 C-96.62719445 69.62757662 -92.46655107 68.06273207 -87.97265625 66.81640625 C-85.69124056 66.17638493 -83.44090405 65.49461484 -81.18359375 64.77734375 C-71.82542623 61.84450804 -62.83406922 59.95297691 -53.0625 59 C-53.0625 59.66 -53.0625 60.32 -53.0625 61 C-53.97773437 61.33773437 -54.89296875 61.67546875 -55.8359375 62.0234375 C-57.02445312 62.46945312 -58.21296875 62.91546875 -59.4375 63.375 C-60.62085937 63.81585938 -61.80421875 64.25671875 -63.0234375 64.7109375 C-66.10743446 65.7950342 -66.10743446 65.7950342 -68.0625 68 C-69.71071835 68.52079122 -71.3822555 68.96925914 -73.0625 69.375 C-80.57858113 71.3348647 -87.42360382 74.11433561 -94.3125 77.6875 C-97.90274038 79.53358575 -100.98322466 80.67795195 -105.0625 81 C-105.0625 81.66 -105.0625 82.32 -105.0625 83 C-105.9803125 83.43570313 -106.898125 83.87140625 -107.84375 84.3203125 C-114.2045439 87.39065212 -120.14463799 90.3836062 -125.609375 94.93359375 C-127.0625 96 -127.0625 96 -129.0625 96 C-129.0625 96.66 -129.0625 97.32 -129.0625 98 C-132.52403846 101 -132.52403846 101 -135.0625 101 C-135.5575 102.485 -135.5575 102.485 -136.0625 104 C-136.7225 104 -137.3825 104 -138.0625 104 C-138.5575 105.485 -138.5575 105.485 -139.0625 107 C-140.37516518 108.35368596 -141.70817325 109.68799596 -143.0625 111 C-143.3925 111.66 -143.7225 112.32 -144.0625 113 C-144.7225 113 -145.3825 113 -146.0625 113 C-146.45308594 113.84111328 -146.45308594 113.84111328 -146.8515625 114.69921875 C-148.1912512 117.24462729 -149.75510566 119.47992269 -151.4375 121.8125 C-154.24430714 125.76781277 -156.74775597 129.74087098 -159.0625 134 C-159.7225 134 -160.3825 134 -161.0625 134 C-161.289375 134.845625 -161.51625 135.69125 -161.75 136.5625 C-163.01491015 139.87535992 -164.66037038 142.19890092 -166.73657227 145.03588867 C-169.37758155 148.94804476 -171.22540391 153.29107759 -173.19921875 157.56640625 C-174.08277559 159.41321329 -175.06612824 161.21153354 -176.0625 163 C-177.0525 163.33 -178.0425 163.66 -179.0625 164 C-179.116848 161.9377952 -179.15544961 159.87517184 -179.1875 157.8125 C-179.21070313 156.66394531 -179.23390625 155.51539063 -179.2578125 154.33203125 C-179.06734152 151.08259628 -178.45610127 148.91339479 -177.0625 146 C-176.4025 146 -175.7425 146 -175.0625 146 C-174.98 145.319375 -174.8975 144.63875 -174.8125 143.9375 C-173.24630451 137.80323433 -169.20437036 132.63502292 -165.69140625 127.44921875 C-163.96528948 124.85383454 -162.32833435 122.21250353 -160.6875 119.5625 C-156.55573368 113.03430922 -151.91506345 106.12921291 -146.0625 101 C-145.4025 101 -144.7425 101 -144.0625 101 C-143.815 100.41734375 -143.5675 99.8346875 -143.3125 99.234375 C-141.87724554 96.66885764 -140.28586987 95.16275202 -138.0625 93.25 C-137.36125 92.63640625 -136.66 92.0228125 -135.9375 91.390625 C-134.0625 90 -134.0625 90 -132.0625 90 C-132.0625 89.34 -132.0625 88.68 -132.0625 88 C-130.3125 86.7109375 -130.3125 86.7109375 -128.0625 85.375 C-127.32 84.92898438 -126.5775 84.48296875 -125.8125 84.0234375 C-124.94625 83.51683594 -124.94625 83.51683594 -124.0625 83 C-125.0525 82.01 -125.0525 82.01 -126.0625 81 C-126.31716505 78.08023562 -126.4328262 75.29612689 -126.4375 72.375 C-126.46199219 71.59253906 -126.48648438 70.81007813 -126.51171875 70.00390625 C-126.54166364 63.9849843 -125.0740458 60.20176093 -122.0625 55 C-121.4025 55 -120.7425 55 -120.0625 55 C-120.0625 54.01 -120.0625 53.02 -120.0625 52 C-119.0725 52 -118.0825 52 -117.0625 52 C-116.7325 51.01 -116.4025 50.02 -116.0625 49 C-113.76953125 47.46484375 -113.76953125 47.46484375 -110.875 45.9375 C-109.93269531 45.43089844 -108.99039063 44.92429687 -108.01953125 44.40234375 C-100.22175824 40.70432458 -92.79669757 40.35994611 -84.296875 39.7890625 C-83.29914063 39.71429688 -82.30140625 39.63953125 -81.2734375 39.5625 C-80.36899902 39.50191406 -79.46456055 39.44132812 -78.53271484 39.37890625 C-76.00657099 38.99142105 -74.26439965 38.26886956 -72.0625 37 C-72.0625 35.68 -72.0625 34.36 -72.0625 33 C-71.4025 33 -70.7425 33 -70.0625 33 C-70.0625 32.34 -70.0625 31.68 -70.0625 31 C-69.4025 31 -68.7425 31 -68.0625 31 C-68.0625 30.01 -68.0625 29.02 -68.0625 28 C-65.25129344 24.19660289 -60.52325246 21.42084193 -55.88549805 20.62768555 C-53.55712495 20.5006287 -51.26833663 20.50258629 -48.9375 20.5625 C-48.15246094 20.55541016 -47.36742187 20.54832031 -46.55859375 20.54101562 C-41.81396652 20.5930225 -39.02365507 21.19703733 -35.0625 24 C-33.41045544 24.70211894 -31.74326231 25.36971413 -30.0625 26 C-26.51068284 27.38891955 -23.16037915 28.72822196 -20.0625 31 C-20.0625 31.66 -20.0625 32.32 -20.0625 33 C-17.0925 33.495 -17.0925 33.495 -14.0625 34 C-13.876875 32.6078125 -13.876875 32.6078125 -13.6875 31.1875 C-13.0625 28 -13.0625 28 -11.0625 25 C-10.49626091 22.86648449 -10.49626091 22.86648449 -10.125 20.5 C-9.40283693 16.6820526 -8.62292942 12.89705594 -7.6875 9.125 C-7.47351563 8.24070312 -7.25953125 7.35640625 -7.0390625 6.4453125 C-5.70880894 3.11435758 -3.8491065 0 0 0 Z " fill="#040404" transform="translate(179.0625,296)"/>
<path d="M0 0 C3.17727799 2.32483755 5.15599269 4.75304457 7.5625 7.875 C8.32433594 8.58462891 8.32433594 8.58462891 9.1015625 9.30859375 C13.72500396 14.26581307 13.87266771 21.5997532 13.66796875 28.00390625 C13.63316406 28.62136719 13.59835938 29.23882812 13.5625 29.875 C11.03727937 27.53683275 9.03027585 25.15835507 7.125 22.3125 C4.92075794 19.20258749 3.1749774 17.35283166 -0.4375 15.875 C-3.43062745 15.36520932 -6.40838714 15.06638186 -9.4375 14.875 C-9.4375 15.535 -9.4375 16.195 -9.4375 16.875 C-10.200625 17.308125 -10.96375 17.74125 -11.75 18.1875 C-14.81578081 20.11252516 -15.8052744 21.68827382 -17.4375 24.875 C-17.96923828 25.79732422 -17.96923828 25.79732422 -18.51171875 26.73828125 C-19.58212237 29.20879087 -19.6412591 30.94719055 -19.5625 33.625 C-19.53542969 34.82382813 -19.53542969 34.82382813 -19.5078125 36.046875 C-19.48460937 36.65015625 -19.46140625 37.2534375 -19.4375 37.875 C-18.4475 37.875 -17.4575 37.875 -16.4375 37.875 C-16.210625 36.67875 -15.98375 35.4825 -15.75 34.25 C-14.56026091 29.60671272 -13.04176699 27.07879288 -9.4375 23.875 C-5.9375 23.1875 -5.9375 23.1875 -2.4375 23.875 C0.5 26.125 0.5 26.125 2.5625 28.875 C2.5625 30.195 2.5625 31.515 2.5625 32.875 C5.5325 32.875 8.5025 32.875 11.5625 32.875 C12.0575 31.885 12.0575 31.885 12.5625 30.875 C12.28667585 37.35686757 9.79722137 41.96609414 5.5625 46.875 C4.5725 47.205 3.5825 47.535 2.5625 47.875 C2.5625 48.535 2.5625 49.195 2.5625 49.875 C0.98175436 50.69252303 -0.60221223 51.50381997 -2.1875 52.3125 C-3.06921875 52.76496094 -3.9509375 53.21742188 -4.859375 53.68359375 C-12.21613198 57.0833072 -21.45356007 57.03583723 -29.1875 54.8125 C-35.87943565 52.20733686 -42.48040823 47.53976035 -45.4375 40.875 C-45.94016935 37.63906604 -46.0084608 34.45850605 -46 31.1875 C-45.9990332 30.29281006 -45.99806641 29.39812012 -45.99707031 28.47631836 C-45.8048255 21.25067868 -44.20223276 16.42217662 -39.4375 10.875 C-38.695 9.84375 -37.9525 8.8125 -37.1875 7.75 C-36.32125 6.821875 -36.32125 6.821875 -35.4375 5.875 C-34.7775 5.875 -34.1175 5.875 -33.4375 5.875 C-33.1075 4.885 -32.7775 3.895 -32.4375 2.875 C-31.7775 2.875 -31.1175 2.875 -30.4375 2.875 C-30.4375 6.505 -30.4375 10.135 -30.4375 13.875 C-29.7775 13.545 -29.1175 13.215 -28.4375 12.875 C-28.1075 11.885 -27.7775 10.895 -27.4375 9.875 C-26.7775 9.545 -26.1175 9.215 -25.4375 8.875 C-25.1075 7.885 -24.7775 6.895 -24.4375 5.875 C-23.4475 5.875 -22.4575 5.875 -21.4375 5.875 C-21.3446875 4.9778125 -21.3446875 4.9778125 -21.25 4.0625 C-18.31827417 -3.830608 -6.33025176 -2.07171876 0 0 Z " fill="#FBFBFB" transform="translate(241.4375,175.125)"/>
<path d="M0 0 C4.10040895 -0.52569345 7.11281642 0.19063926 10.8125 1.875 C11.58207031 2.22304687 12.35164063 2.57109375 13.14453125 2.9296875 C16.29070282 6.44015263 15.8342113 10.43047028 16 15 C16.06980128 16.39504931 16.14024223 17.7900667 16.21118164 19.18505859 C16.39947771 23.20063448 16.50138087 27.21363354 16.56982422 31.23291016 C16.60677562 32.91861367 16.66163114 34.60401467 16.73388672 36.28857422 C17.32454706 50.33649142 17.32454706 50.33649142 14.05761719 54.43945312 C5.9600604 59.94723597 -3.9603337 60.14466119 -13.40234375 58.609375 C-15.98206478 57.72877001 -17.65426879 56.5822165 -19.05078125 54.23046875 C-19.69521394 52.84347987 -20.30766739 51.44127164 -20.890625 50.02734375 C-22.19178398 47.64952154 -23.52035066 46.75278366 -25.75 45.25 C-28.20827231 43.30870341 -28.91243948 42.42423687 -29.5546875 39.3125 C-29.71162033 32.4772032 -28.37184562 26.38139416 -26 20 C-25.34 20 -24.68 20 -24 20 C-23.814375 19.34 -23.62875 18.68 -23.4375 18 C-20.95097594 12.8107324 -17.2132111 8.54924777 -12.5 5.25 C-8.50141764 4.85014176 -6.2909106 6.8060596 -3 9 C-3 9.99 -3 10.98 -3 12 C-2.01 12.33 -1.02 12.66 0 13 C1.1875 16.5625 1.1875 16.5625 2 20 C2.66 20 3.32 20 4 20 C5.84349523 16.31300953 4.72273117 11.95009966 4 8 C2.63002843 5.12853006 2.63002843 5.12853006 1 3 C0.67 2.01 0.34 1.02 0 0 Z " fill="#FBFBFB" transform="translate(317,166)"/>
<path d="M0 0 C2.67965306 1.38304674 3.57051271 2.26602543 4.9375 5 C7.05689133 17.28225581 -0.76127359 29.06486244 -7.0625 39 C-10.7196184 44.08971223 -15.20345936 48.07539025 -20.0625 52 C-19.5675 52.45375 -19.0725 52.9075 -18.5625 53.375 C-17.0625 55 -17.0625 55 -17.0625 57 C-16.19625 57.0928125 -16.19625 57.0928125 -15.3125 57.1875 C-12.16948594 58.3224773 -11.06347824 60.37371606 -9.0625 63 C-8.32 63.556875 -7.5775 64.11375 -6.8125 64.6875 C-6.235 65.120625 -5.6575 65.55375 -5.0625 66 C-5.0625 66.66 -5.0625 67.32 -5.0625 68 C-4.52109375 68.2165625 -3.9796875 68.433125 -3.421875 68.65625 C-0.24604656 70.46499997 2.14478081 72.91723799 4.6875 75.5 C5.19410156 75.99886719 5.70070312 76.49773437 6.22265625 77.01171875 C9.9375 80.74658861 9.9375 80.74658861 9.9375 83 C10.79601562 83.37125 10.79601562 83.37125 11.671875 83.75 C14.28760611 85.19316199 16.08523456 86.88216222 18.1875 89 C19.24710938 90.051875 19.24710938 90.051875 20.328125 91.125 C21.9375 93 21.9375 93 21.9375 95 C22.7728125 95.309375 22.7728125 95.309375 23.625 95.625 C26.22545294 97.17121526 27.78502926 99.06917296 29.65234375 101.421875 C32.3707419 104.75996878 35.57830049 107.65712774 38.6875 110.625 C40.9375 113 40.9375 113 41.9375 116 C43.4225 116.495 43.4225 116.495 44.9375 117 C45.96763277 118.64821244 46.96864628 120.31503702 47.9375 122 C48.5975 122.33 49.2575 122.66 49.9375 123 C49.9375 123.66 49.9375 124.32 49.9375 125 C52.93742729 123.70855022 52.93742729 123.70855022 55.9375 122 C56.4325 120.515 56.4325 120.515 56.9375 119 C57.9275 119 58.9175 119 59.9375 119 C59.9375 118.01 59.9375 117.02 59.9375 116 C60.5975 116 61.2575 116 61.9375 116 C62.185 115.443125 62.4325 114.88625 62.6875 114.3125 C64.16674818 111.57589087 65.87217439 109.32349131 67.9375 107 C68.5975 107 69.2575 107 69.9375 107 C70.246875 106.38125 70.55625 105.7625 70.875 105.125 C71.5625 103.75 72.25 102.375 72.9375 101 C73.5975 101 74.2575 101 74.9375 101 C75.246875 100.38125 75.55625 99.7625 75.875 99.125 C76.5625 97.75 77.25 96.375 77.9375 95 C78.5975 95 79.2575 95 79.9375 95 C80.4325 93.02 80.4325 93.02 80.9375 91 C81.5975 91 82.2575 91 82.9375 91 C83.5975 89.35 84.2575 87.7 84.9375 86 C85.5975 86 86.2575 86 86.9375 86 C87.14375 85.34 87.35 84.68 87.5625 84 C88.78002405 81.3435839 89.97604817 79.53014374 91.75 77.25 C94.98597621 73.08378002 97.49631511 68.66633571 99.9375 64 C100.5975 64 101.2575 64 101.9375 64 C102.123125 63.13375 102.123125 63.13375 102.3125 62.25 C103.35978454 58.47977564 104.78659637 55.42377202 107.9375 53 C109.2575 53 110.5775 53 111.9375 53 C111.50576496 59.15222436 110.28344658 62.81917949 106.9375 68 C106.2775 68 105.6175 68 104.9375 68 C103.86224806 70.65228812 102.84293849 73.28368454 101.9375 76 C100.9475 76.495 100.9475 76.495 99.9375 77 C99.6075 77.99 99.2775 78.98 98.9375 80 C98.2775 80 97.6175 80 96.9375 80 C96.64875 80.763125 96.36 81.52625 96.0625 82.3125 C94.9375 85 94.9375 85 92.9375 88 C92.2775 88 91.6175 88 90.9375 88 C90.73125 88.66 90.525 89.32 90.3125 90 C88.44625748 94.07180186 85.96188473 97.68796998 82.9375 101 C82.2775 101 81.6175 101 80.9375 101 C80.69 101.53625 80.4425 102.0725 80.1875 102.625 C77.46838694 107.79131482 74.29778854 112.0986892 69.9375 116 C69.2775 116 68.6175 116 67.9375 116 C67.9375 116.99 67.9375 117.98 67.9375 119 C66.0625 121.1875 66.0625 121.1875 63.9375 123 C63.2775 123 62.6175 123 61.9375 123 C61.56625 123.86625 61.56625 123.86625 61.1875 124.75 C59.6807025 127.46223549 58.42506387 129.11751924 55.9375 131 C51.74461329 131.47861727 49.58752202 131.39818103 45.953125 129.171875 C45.04046875 128.37265625 44.1278125 127.5734375 43.1875 126.75 C41.80304688 125.56664062 41.80304688 125.56664062 40.390625 124.359375 C38.27920961 122.32865065 36.51509611 120.46104993 34.9375 118 C34.9375 117.34 34.9375 116.68 34.9375 116 C33.4525 115.505 33.4525 115.505 31.9375 115 C31.9375 114.34 31.9375 113.68 31.9375 113 C31.2775 113 30.6175 113 29.9375 113 C28.4921875 111.56640625 28.4921875 111.56640625 26.8125 109.5625 C26.19761719 108.840625 25.58273438 108.11875 24.94921875 107.375 C24.28535156 106.59125 23.62148437 105.8075 22.9375 105 C21.50584364 103.34908096 20.06843753 101.70312845 18.625 100.0625 C17.96886719 99.31097656 17.31273437 98.55945313 16.63671875 97.78515625 C15.04795152 95.91375803 15.04795152 95.91375803 12.9375 95 C12.504375 94.236875 12.07125 93.47375 11.625 92.6875 C9.76402001 89.72371705 7.66888124 88.14081233 4.9375 86 C4.9375 85.34 4.9375 84.68 4.9375 84 C3.9475 83.67 2.9575 83.34 1.9375 83 C-0.25 81.0625 -0.25 81.0625 -2.0625 79 C-2.0625 78.34 -2.0625 77.68 -2.0625 77 C-3.5475 76.505 -3.5475 76.505 -5.0625 76 C-5.0625 75.01 -5.0625 74.02 -5.0625 73 C-5.701875 72.731875 -6.34125 72.46375 -7 72.1875 C-9.0625 71 -9.0625 71 -10.0625 68 C-11.38370648 67.30961194 -12.71866101 66.64522786 -14.0625 66 C-15.61474609 64.45947266 -15.61474609 64.45947266 -17.0859375 62.6640625 C-17.6325 62.01179688 -18.1790625 61.35953125 -18.7421875 60.6875 C-19.86541359 59.32099452 -20.98782023 57.95381504 -22.109375 56.5859375 C-25.4624249 52.58746484 -28.55806553 49.65366985 -33.0625 47 C-31.5775 46.505 -31.5775 46.505 -30.0625 46 C-28.37753702 46.96885372 -26.71071244 47.96986723 -25.0625 49 C-24.0725 49 -23.0825 49 -22.0625 49 C-21.22223604 47.23244474 -20.39051278 45.46082737 -19.5625 43.6875 C-19.0984375 42.70136719 -18.634375 41.71523438 -18.15625 40.69921875 C-16.87472528 38.02199874 -16.87472528 38.02199874 -17.0625 35 C-17.7225 35 -18.3825 35 -19.0625 35 C-19.0625 34.34 -19.0625 33.68 -19.0625 33 C-17.4125 33.33 -15.7625 33.66 -14.0625 34 C-13.93875 33.071875 -13.815 32.14375 -13.6875 31.1875 C-13.0625 28 -13.0625 28 -11.0625 25 C-10.49626091 22.86648449 -10.49626091 22.86648449 -10.125 20.5 C-9.40283693 16.6820526 -8.62292942 12.89705594 -7.6875 9.125 C-7.47351563 8.24070312 -7.25953125 7.35640625 -7.0390625 6.4453125 C-5.70880894 3.11435758 -3.8491065 0 0 0 Z " fill="#0A0A0A" transform="translate(179.0625,296)"/>
<path d="M0 0 C0.99 0.33 1.98 0.66 3 1 C4.17755913 3.94389782 4.03348696 4.89953913 3 8 C1.4375 9.6875 1.4375 9.6875 0 11 C0.598125 11.103125 1.19625 11.20625 1.8125 11.3125 C4.28243264 12.08876455 5.32251235 13.07088921 7 15 C5.68 15 4.36 15 3 15 C2.01 14.01 2.01 14.01 1 13 C-3.16044662 13.16999674 -5.20832593 15.94034917 -7.9375 18.8125 C-10.46175303 21.45379722 -12.89718371 23.9178928 -15.75390625 26.19921875 C-18.07618933 27.80396539 -18.07618933 27.80396539 -19 30 C-19.99 30 -20.98 30 -22 30 C-22.495 31.485 -22.495 31.485 -23 33 C-25.109375 34.6484375 -25.109375 34.6484375 -27.75 36.375 C-31.59794565 38.96948967 -34.75972331 41.66714397 -38 45 C-39.65261839 46.02304948 -41.31791365 47.02616054 -43 48 C-43.556875 48.556875 -44.11375 49.11375 -44.6875 49.6875 C-45.120625 50.120625 -45.55375 50.55375 -46 51 C-46.66 51 -47.32 51 -48 51 C-48.33 51.99 -48.66 52.98 -49 54 C-50.9375 56.1875 -50.9375 56.1875 -53 58 C-53.66 58 -54.32 58 -55 58 C-55 58.66 -55 59.32 -55 60 C-56.64453125 61.62109375 -56.64453125 61.62109375 -58.8125 63.4375 C-63.93601003 67.472287 -63.93601003 67.472287 -67 73 C-69.4375 75.6875 -69.4375 75.6875 -72 78 C-72.66 78 -73.32 78 -74 78 C-73.38259778 73.98688554 -71.28262093 71.28965958 -69 68 C-68.46375 67.05125 -67.9275 66.1025 -67.375 65.125 C-66.694375 64.073125 -66.694375 64.073125 -66 63 C-65.34 63 -64.68 63 -64 63 C-63.731875 62.360625 -63.46375 61.72125 -63.1875 61.0625 C-62 59 -62 59 -59 58 C-58.26676204 55.98491642 -58.26676204 55.98491642 -58 54 C-57.01 54 -56.02 54 -55 54 C-55 53.01 -55 52.02 -55 51 C-53.5390625 49.39453125 -53.5390625 49.39453125 -51.625 47.8125 C-50.99851562 47.28269531 -50.37203125 46.75289063 -49.7265625 46.20703125 C-48 45 -48 45 -46 45 C-45.67 44.01 -45.34 43.02 -45 42 C-43.30618696 40.45681128 -41.54557498 38.98599728 -39.75 37.5625 C-38.79609375 36.80066406 -37.8421875 36.03882813 -36.859375 35.25390625 C-35.01181707 33.79756619 -33.15804164 32.34906398 -31.296875 30.91015625 C-29.36280969 29.30172439 -27.97205247 27.88330016 -26.5 25.875 C-24.01478648 23.01700445 -22.57650571 22.02185877 -19 21 C-19 20.34 -19 19.68 -19 19 C-17.1875 16.875 -17.1875 16.875 -15 15 C-14.01 15 -13.02 15 -12 15 C-12 14.01 -12 13.02 -12 12 C-11.34 12 -10.68 12 -10 12 C-9.9175 11.41605469 -9.835 10.83210938 -9.75 10.23046875 C-8.77693185 7.33660461 -7.34128418 6.23987859 -5 4.3125 C-4.278125 3.71050781 -3.55625 3.10851562 -2.8125 2.48828125 C-2.214375 1.99714844 -1.61625 1.50601562 -1 1 C-0.67 0.67 -0.34 0.34 0 0 Z " fill="#0B0B0B" transform="translate(318,361)"/>
<path d="M0 0 C0.99 0.33 1.98 0.66 3 1 C3 1.66 3 2.32 3 3 C3.59941406 3.26039063 4.19882813 3.52078125 4.81640625 3.7890625 C7.14938374 5.08284251 8.29777781 6.29468764 9.9375 8.375 C11.73241876 10.56579056 13.24176766 12.18736994 15.5 13.9375 C17.81931707 15.85093659 19.20123622 17.52026004 20.9375 19.9375 C23.5714367 23.58863476 26.49679683 26.15364743 30 29 C36 35.2739726 36 35.2739726 36 38 C36.66 38 37.32 38 38 38 C39.18675282 39.1528456 40.36738771 40.31284735 41.51171875 41.5078125 C43.10413427 43.10440759 44.77440817 44.5488487 46.5 46 C48.60068644 47.77090125 50.5131827 49.52634123 52.4375 51.5 C56.4251718 55.39041152 60.66723167 59.22241056 66 61 C66 61.66 66 62.32 66 63 C66.928125 63.28875 67.85625 63.5775 68.8125 63.875 C72 65 72 65 75 67 C76.98799818 67.70164642 78.98698517 68.37372872 81 69 C81 70.65 81 72.3 81 74 C77.51503893 75.17046624 77.01470074 75.00603948 73.3203125 73.48828125 C71.91557865 72.77529252 70.51727901 72.04951375 69.125 71.3125 C68.43019531 70.95994141 67.73539062 70.60738281 67.01953125 70.24414062 C60.78030276 67.03052671 55.13431612 63.22620162 49.625 58.875 C48.75101563 58.19179688 47.87703125 57.50859375 46.9765625 56.8046875 C46.32429688 56.20914063 45.67203125 55.61359375 45 55 C45 54.34 45 53.68 45 53 C43.68 52.67 42.36 52.34 41 52 C41 51.01 41 50.02 41 49 C40.01 49 39.02 49 38 49 C33 43.65116279 33 43.65116279 33 41 C32.01 41 31.02 41 30 41 C28.68139648 39.63891602 28.68139648 39.63891602 27.37109375 37.75390625 C26.89349609 37.08166016 26.41589844 36.40941406 25.92382812 35.71679688 C25.43333984 35.00587891 24.94285156 34.29496094 24.4375 33.5625 C23.46068238 32.16540883 22.48037375 30.77075009 21.49609375 29.37890625 C21.06482178 28.7557251 20.6335498 28.13254395 20.18920898 27.49047852 C19.05181176 25.85080673 19.05181176 25.85080673 17 25 C17 24.01 17 23.02 17 22 C16.34 22 15.68 22 15 22 C14.71125 21.360625 14.4225 20.72125 14.125 20.0625 C13.17176549 17.84793921 13.17176549 17.84793921 11 17 C10.67 16.01 10.34 15.02 10 14 C9.154375 13.175 8.30875 12.35 7.4375 11.5 C5 9 5 9 5 6 C4.01 5.67 3.02 5.34 2 5 C0.8125 2.4375 0.8125 2.4375 0 0 Z " fill="#0D0D0D" transform="translate(136,378)"/>
<path d="M0 0 C3.44175831 1.14725277 4.29119275 2.25284652 6.5625 5 C8.92210327 7.94959179 8.92210327 7.94959179 12 10 C12 10.66 12 11.32 12 12 C14.39652528 12.08139142 16.79025436 12.14067009 19.1875 12.1875 C20.19780273 12.22520508 20.19780273 12.22520508 21.22851562 12.26367188 C25.71933566 12.32939119 28.42040717 11.72232288 32 9 C32.66 8.278125 33.32 7.55625 34 6.8125 C36 5 36 5 38.75 4.75 C39.4925 4.8325 40.235 4.915 41 5 C41.495 6.485 41.495 6.485 42 8 C42.66 8 43.32 8 44 8 C43.45276317 11.37462715 42.9451 13.08235 41 16 C40.34 16 39.68 16 39 16 C39 16.66 39 17.32 39 18 C31.37341686 21.99487688 24.19633949 24.89162179 15.6328125 22.27734375 C8.97222741 19.50770652 3.07079796 15.78807969 0 9 C-1.30120482 2.60240964 -1.30120482 2.60240964 0 0 Z " fill="#090909" transform="translate(254,251)"/>
<path d="M0 0 C4.40089338 -0.35207147 7.95649175 -0.44721782 12.0625 1.3125 C16.40893887 5.28902918 20.10321442 9.85800933 23 15 C22.67 15.99 22.34 16.98 22 18 C15.375 19.125 15.375 19.125 12 18 C11.30341637 16.34561387 10.63903117 14.67745682 10 13 C8.89661743 11.14646548 8.89661743 11.14646548 7 10 C3.38976901 9.26958147 3.38976901 9.26958147 0 9 C-0.33 9.99 -0.66 10.98 -1 12 C-1.66 12 -2.32 12 -3 12 C-4.66489182 15.92438786 -5.87204037 19.89100419 -7 24 C-8.32 23.67 -9.64 23.34 -11 23 C-11.66603543 15.0075749 -10.04686383 9.69316828 -4.9375 3.5 C-3 2 -3 2 0 2 C0 1.34 0 0.68 0 0 Z " fill="#090909" transform="translate(232,190)"/>
<path d="M0 0 C4.95769042 2.63419518 10.38960384 5.60166721 14 10 C14.40111303 13.20890425 14.52233914 15.14776246 12.8125 17.9375 C11 19 11 19 8.6875 19 C5.04654085 17.6452245 2.87364587 15.60632998 0 13 C-0.33 13.33 -0.66 13.66 -1 14 C-3.9375 14.1875 -3.9375 14.1875 -7 14 C-7.66 13.34 -8.32 12.68 -9 12 C-8.66666667 9.66666667 -8.33333333 7.33333333 -8 5 C-8.66 4.34 -9.32 3.68 -10 3 C-10 2.01 -10 1.02 -10 0 C-6.62963511 -1.68518244 -3.48240351 -1.01896694 0 0 Z " fill="#070707" transform="translate(139,204)"/>
<path d="M0 0 C2.91360404 1.45680202 3.50968691 3.07898635 5 6 C5.79136428 8.42570355 6.48889834 10.86914336 7.18359375 13.32421875 C7.98752701 15.95911963 8.94626776 18.4558176 10 21 C11.69521762 25.11879869 13.04151119 29.25335203 14.2734375 33.53125 C15.2398159 36.81485834 16.33968963 40.04760717 17.44921875 43.28515625 C18 45 18 45 18 46 C15.69 46 13.38 46 11 46 C10.77957031 45.17435547 10.77957031 45.17435547 10.5546875 44.33203125 C8.7113837 37.49909477 6.80037989 30.68518259 4.875 23.875 C4.60929199 22.9260083 4.34358398 21.9770166 4.06982422 20.99926758 C3.8173291 20.11005615 3.56483398 19.22084473 3.3046875 18.3046875 C2.9641333 17.0978833 2.9641333 17.0978833 2.61669922 15.86669922 C2.15774896 14.00788212 2.15774896 14.00788212 1 13 C0.76518307 10.81707226 0.58636677 8.62796826 0.4375 6.4375 C0.35371094 5.23996094 0.26992187 4.04242188 0.18359375 2.80859375 C0.12300781 1.88175781 0.06242187 0.95492188 0 0 Z " fill="#0D0D0D" transform="translate(67,414)"/>
<path d="M0 0 C4.23215473 2.19192243 6.55697347 4.67092042 8.0625 9.1875 C8 12 8 12 6 15 C3.375 15.1875 3.375 15.1875 1 15 C0.46375 13.865625 -0.0725 12.73125 -0.625 11.5625 C-2.36742851 8.45370668 -2.62276269 8.10881846 -6.25 7.0625 C-7.61125 7.0315625 -7.61125 7.0315625 -9 7 C-9 7.66 -9 8.32 -9 9 C-11.375 11.625 -11.375 11.625 -14 14 C-14.66 14 -15.32 14 -16 14 C-17.44430855 11.11138291 -17.37688506 9.20352299 -17 6 C-11.95160273 0.02163482 -7.64318434 -1.19781247 0 0 Z " fill="#090909" transform="translate(311,190)"/>
<path d="M0 0 C0.66 0 1.32 0 2 0 C3.65497356 3.30994713 3.10084335 6.99123 3.0625 10.625 C3.05798828 11.42679687 3.05347656 12.22859375 3.04882812 13.0546875 C3.03703168 15.03649006 3.01909605 17.01825433 3 19 C1.68 18.67 0.36 18.34 -1 18 C-1.11269443 11.8894576 -0.89604368 6.04829486 0 0 Z " fill="#F2F2F2" transform="translate(339,366)"/>
<path d="M0 0 C5.61008579 4.36340006 8.50007593 8.26943521 11 15 C6.82616605 11.07168569 3.10605574 6.83520017 0 2 C0 1.34 0 0.68 0 0 Z " fill="#C4C4C4" transform="translate(367,409)"/>
<path d="M0 0 C3.68754757 0.49831724 5.60490662 1.10067643 8 4 C4 4 4 4 1.75 2 C1.1725 1.34 0.595 0.68 0 0 Z " fill="#373737" transform="translate(317,372)"/>
</svg>
